<?xml version="1.0" encoding="utf-8"?>
<!-- Generator: Adobe Illustrator 19.0.0, SVG Export Plug-In . SVG Version: 6.00 Build 0)  -->
<svg version="1.1" id="Layer_1" xmlns="http://www.w3.org/2000/svg" xmlns:xlink="http://www.w3.org/1999/xlink" x="0px" y="0px"
	 viewBox="0 0 559.3 374" style="enable-background:new 0 0 559.3 374;" xml:space="preserve">
<style type="text/css">
	.st0{fill:#C00000;}
	.st1{font-family:'OpenSans-Regular';}
	.st2{font-size:8.3711px;}
	.st3{font-family:'OpenSans-Bold';}
	.st4{font-size:8.3819px;}
	.st5{letter-spacing:2;}
	.st6{letter-spacing:1;}
	.st7{fill:none;stroke:#C00000;stroke-width:2;stroke-miterlimit:10;}
	.st8{fill-rule:evenodd;clip-rule:evenodd;fill:#C00000;}
	.st9{fill:#FFFFFF;}
</style>
<g id="XMLID_4_">
	<path id="XMLID_203_" class="st0" d="M521.1,6.5c17.7,0,32,14.3,32,32v328.7H38.9c-17.7,0-32-14.3-32-32V6.5H521.1 M521.1,4.5H7H5
		v2v328.7c0,18.7,15.2,34,34,34h514.2h2v-2V38.5C555.1,19.8,539.9,4.5,521.1,4.5L521.1,4.5z"/>
</g>
<text id="XMLID_276_" transform="matrix(1.0013 0 0 1 49.0847 70.6379)"><tspan x="0" y="0" class="st1 st2">R</tspan><tspan x="5" y="0" class="st1 st2">e</tspan><tspan x="9.9" y="0" class="st1 st2">s</tspan><tspan x="13.8" y="0" class="st1 st2">i</tspan><tspan x="16" y="0" class="st1 st2">d</tspan><tspan x="21.1" y="0" class="st1 st2">e</tspan><tspan x="26" y="0" class="st1 st2">n</tspan><tspan x="31.1" y="0" class="st1 st2">t</tspan><tspan x="34.2" y="0" class="st1 st2">i</tspan><tspan x="36.3" y="0" class="st1 st2">a</tspan><tspan x="41.1" y="0" class="st1 st2">l</tspan><tspan x="43.3" y="0" class="st1 st2"> </tspan><tspan x="45.7" y="0" class="st1 st2">(</tspan><tspan x="47.9" y="0" class="st1 st2">$162</tspan><tspan x="67.1" y="0" class="st1 st2"> T</tspan><tspan x="74.3" y="0" class="st1 st2">r</tspan><tspan x="77.5" y="0" class="st1 st2">illi</tspan><tspan x="86.3" y="0" class="st1 st2">o</tspan><tspan x="91.5" y="0" class="st1 st2">n</tspan><tspan x="96.6" y="0" class="st1 st2"> </tspan><tspan x="99" y="0" class="st1 st2">M</tspan><tspan x="106.7" y="0" class="st1 st2">a</tspan><tspan x="111.5" y="0" class="st1 st2">r</tspan><tspan x="114.8" y="0" class="st1 st2">k</tspan><tspan x="119" y="0" class="st1 st2">e</tspan><tspan x="123.9" y="0" class="st1 st2">t</tspan><tspan x="126.9" y="0" class="st1 st2">)</tspan></text>
<text id="XMLID_269_" transform="matrix(1.0013 0 0 1 49.0847 87.3722)"><tspan x="0" y="0" class="st1 st2">C</tspan><tspan x="5" y="0" class="st1 st2">o</tspan><tspan x="10.2" y="0" class="st1 st2">mm</tspan><tspan x="26.2" y="0" class="st1 st2">e</tspan><tspan x="31.1" y="0" class="st1 st2">r</tspan><tspan x="34.3" y="0" class="st1 st2">c</tspan><tspan x="38.2" y="0" class="st1 st2">i</tspan><tspan x="40.4" y="0" class="st1 st2">a</tspan><tspan x="45.2" y="0" class="st1 st2">l</tspan><tspan x="47.3" y="0" class="st1 st2"> </tspan><tspan x="49.7" y="0" class="st1 st2">(</tspan><tspan x="51.9" y="0" class="st1 st2">29</tspan><tspan x="61.5" y="0" class="st1 st2"> T</tspan><tspan x="68.7" y="0" class="st1 st2">r</tspan><tspan x="72" y="0" class="st1 st2">illi</tspan><tspan x="80.7" y="0" class="st1 st2">o</tspan><tspan x="85.9" y="0" class="st1 st2">n</tspan><tspan x="91" y="0" class="st1 st2"> </tspan><tspan x="93.4" y="0" class="st1 st2">M</tspan><tspan x="101.2" y="0" class="st1 st2">a</tspan><tspan x="106" y="0" class="st1 st2">r</tspan><tspan x="109.2" y="0" class="st1 st2">k</tspan><tspan x="113.4" y="0" class="st1 st2">e</tspan><tspan x="118.3" y="0" class="st1 st2">t</tspan><tspan x="121.4" y="0" class="st1 st2">)</tspan></text>
<text id="XMLID_265_" transform="matrix(1.0013 0 0 1 49.0847 111.841)"><tspan x="0" y="0" class="st1 st2">F</tspan><tspan x="4" y="0" class="st1 st2">i</tspan><tspan x="6.2" y="0" class="st1 st2">n</tspan><tspan x="11.3" y="0" class="st1 st2">a</tspan><tspan x="16.1" y="0" class="st1 st2">n</tspan><tspan x="21.3" y="0" class="st1 st2">c</tspan><tspan x="25.1" y="0" class="st1 st2">i</tspan><tspan x="27.3" y="0" class="st1 st2">a</tspan><tspan x="32.1" y="0" class="st1 st2">l</tspan><tspan x="34.3" y="0" class="st1 st2"> T</tspan><tspan x="41.4" y="0" class="st1 st2">r</tspan><tspan x="44.7" y="0" class="st1 st2">a</tspan><tspan x="49.5" y="0" class="st1 st2">n</tspan><tspan x="54.6" y="0" class="st1 st2">s</tspan><tspan x="58.5" y="0" class="st1 st2">p</tspan><tspan x="63.7" y="0" class="st1 st2">a</tspan><tspan x="68.5" y="0" class="st1 st2">r</tspan><tspan x="71.7" y="0" class="st1 st2">e</tspan><tspan x="76.6" y="0" class="st1 st2">n</tspan><tspan x="81.7" y="0" class="st1 st2">c</tspan><tspan x="85.6" y="0" class="st1 st2">i</tspan><tspan x="87.8" y="0" class="st1 st2">e</tspan><tspan x="92.7" y="0" class="st1 st2">s</tspan></text>
<text id="XMLID_261_" transform="matrix(1.0013 0 0 1 49.0847 128.5832)"><tspan x="0" y="0" class="st1 st2">U</tspan><tspan x="6" y="0" class="st1 st2">s</tspan><tspan x="9.9" y="0" class="st1 st2">e</tspan><tspan x="14.8" y="0" class="st1 st2"> </tspan><tspan x="17.1" y="0" class="st1 st2">o</tspan><tspan x="22.3" y="0" class="st1 st2">f</tspan><tspan x="25.3" y="0" class="st1 st2"> </tspan><tspan x="27.6" y="0" class="st1 st2">P</tspan><tspan x="32.5" y="0" class="st1 st2">r</tspan><tspan x="35.8" y="0" class="st1 st2">o</tspan><tspan x="41" y="0" class="st1 st2">c</tspan><tspan x="44.9" y="0" class="st1 st2">ee</tspan><tspan x="54.7" y="0" class="st1 st2">d</tspan><tspan x="59.8" y="0" class="st1 st2">s</tspan><tspan x="63.7" y="0" class="st1 st2"> </tspan><tspan x="66" y="0" class="st1 st2">-</tspan><tspan x="68.5" y="0" class="st1 st2"> </tspan><tspan x="70.8" y="0" class="st1 st2">A</tspan><tspan x="76.2" y="0" class="st1 st2">ss</tspan><tspan x="84" y="0" class="st1 st2">e</tspan><tspan x="88.9" y="0" class="st1 st2">t</tspan></text>
<text id="XMLID_257_" transform="matrix(1.0013 0 0 1 49.0847 145.3254)"><tspan x="0" y="0" class="st1 st2">U</tspan><tspan x="6" y="0" class="st1 st2">s</tspan><tspan x="9.9" y="0" class="st1 st2">e</tspan><tspan x="14.8" y="0" class="st1 st2"> </tspan><tspan x="17.1" y="0" class="st1 st2">o</tspan><tspan x="22.3" y="0" class="st1 st2">f</tspan><tspan x="25.3" y="0" class="st1 st2"> </tspan><tspan x="27.6" y="0" class="st1 st2">P</tspan><tspan x="32.5" y="0" class="st1 st2">r</tspan><tspan x="35.8" y="0" class="st1 st2">o</tspan><tspan x="41" y="0" class="st1 st2">c</tspan><tspan x="44.9" y="0" class="st1 st2">ee</tspan><tspan x="54.7" y="0" class="st1 st2">d</tspan><tspan x="59.8" y="0" class="st1 st2">s</tspan><tspan x="63.7" y="0" class="st1 st2"> </tspan><tspan x="66" y="0" class="st1 st2">-</tspan><tspan x="68.5" y="0" class="st1 st2"> </tspan><tspan x="70.8" y="0" class="st1 st2">S</tspan><tspan x="75.6" y="0" class="st1 st2">G</tspan><tspan x="81.7" y="0" class="st1 st2">&amp;</tspan><tspan x="87.9" y="0" class="st1 st2">A</tspan></text>
<text id="XMLID_250_" transform="matrix(1.0013 0 0 1 49.0847 162.0676)"><tspan x="0" y="0" class="st1 st2">D</tspan><tspan x="5.9" y="0" class="st1 st2">i</tspan><tspan x="8.1" y="0" class="st1 st2">v</tspan><tspan x="12.5" y="0" class="st1 st2">i</tspan><tspan x="14.6" y="0" class="st1 st2">d</tspan><tspan x="19.8" y="0" class="st1 st2">e</tspan><tspan x="24.7" y="0" class="st1 st2">n</tspan><tspan x="29.8" y="0" class="st1 st2">d</tspan></text>
<text id="XMLID_246_" transform="matrix(1.0013 0 0 1 49.0847 178.8098)"><tspan x="0" y="0" class="st1 st2">L</tspan><tspan x="4.1" y="0" class="st1 st2">i</tspan><tspan x="6.3" y="0" class="st1 st2">qu</tspan><tspan x="16.6" y="0" class="st1 st2">i</tspan><tspan x="18.7" y="0" class="st1 st2">d</tspan><tspan x="23.9" y="0" class="st1 st2">i</tspan><tspan x="26" y="0" class="st1 st2">t</tspan><tspan x="29.1" y="0" class="st1 st2">y</tspan></text>
<text id="XMLID_242_" transform="matrix(1.0013 0 0 1 49.0847 195.5598)"><tspan x="0" y="0" class="st1 st2">T</tspan><tspan x="4.8" y="0" class="st1 st2">o</tspan><tspan x="10" y="0" class="st1 st2">k</tspan><tspan x="14.2" y="0" class="st1 st2">e</tspan><tspan x="19.1" y="0" class="st1 st2">n</tspan><tspan x="24.3" y="0" class="st1 st2"> </tspan><tspan x="26.6" y="0" class="st1 st2">B</tspan><tspan x="31.8" y="0" class="st1 st2">u</tspan><tspan x="36.9" y="0" class="st1 st2">y</tspan><tspan x="41.3" y="0" class="st1 st2">-</tspan><tspan x="43.7" y="0" class="st1 st2">B</tspan><tspan x="48.9" y="0" class="st1 st2">a</tspan><tspan x="53.7" y="0" class="st1 st2">c</tspan><tspan x="57.6" y="0" class="st1 st2">k</tspan><tspan x="61.8" y="0" class="st1 st2"> </tspan><tspan x="64.1" y="0" class="st1 st2">/</tspan><tspan x="67.2" y="0" class="st1 st2"> </tspan><tspan x="69.6" y="0" class="st1 st2">B</tspan><tspan x="74.8" y="0" class="st1 st2">u</tspan><tspan x="79.9" y="0" class="st1 st2">r</tspan><tspan x="83.2" y="0" class="st1 st2">n</tspan></text>
<text id="XMLID_240_" transform="matrix(1.0013 0 0 1 49.0847 212.2941)"><tspan x="0" y="0" class="st1 st2">O</tspan><tspan x="6.5" y="0" class="st1 st2">w</tspan><tspan x="12.8" y="0" class="st1 st2">n</tspan><tspan x="17.9" y="0" class="st1 st2">e</tspan><tspan x="22.8" y="0" class="st1 st2">r</tspan><tspan x="26" y="0" class="st1 st2">s</tspan><tspan x="29.9" y="0" class="st1 st2">h</tspan><tspan x="35.1" y="0" class="st1 st2">i</tspan><tspan x="37.2" y="0" class="st1 st2">p</tspan><tspan x="42.4" y="0" class="st1 st2"> </tspan><tspan x="44.7" y="0" class="st1 st2">o</tspan><tspan x="49.9" y="0" class="st1 st2">f</tspan><tspan x="52.9" y="0" class="st1 st2"> </tspan><tspan x="55.2" y="0" class="st1 st2">A</tspan><tspan x="60.6" y="0" class="st1 st2">ss</tspan><tspan x="68.4" y="0" class="st1 st2">e</tspan><tspan x="73.3" y="0" class="st1 st2">t</tspan></text>
<text id="XMLID_236_" transform="matrix(1.0013 0 0 1 49.0847 236.7629)"><tspan x="0" y="0" class="st1 st2">I</tspan><tspan x="2.2" y="0" class="st1 st2">n</tspan><tspan x="7.3" y="0" class="st1 st2">v</tspan><tspan x="11.7" y="0" class="st1 st2">e</tspan><tspan x="16.6" y="0" class="st1 st2">s</tspan><tspan x="20.5" y="0" class="st1 st2">t</tspan><tspan x="23.5" y="0" class="st1 st2">o</tspan><tspan x="28.7" y="0" class="st1 st2">r</tspan><tspan x="32" y="0" class="st1 st2"> </tspan><tspan x="34.4" y="0" class="st1 st2">L</tspan><tspan x="38.5" y="0" class="st1 st2">o</tspan><tspan x="43.7" y="0" class="st1 st2">w</tspan><tspan x="50" y="0" class="st1 st2">E</tspan><tspan x="54.9" y="0" class="st1 st2">n</tspan><tspan x="60.1" y="0" class="st1 st2">t</tspan><tspan x="63.1" y="0" class="st1 st2">r</tspan><tspan x="66.4" y="0" class="st1 st2">y </tspan><tspan x="73.1" y="0" class="st1 st2">B</tspan><tspan x="78.3" y="0" class="st1 st2">a</tspan><tspan x="83.1" y="0" class="st1 st2">rr</tspan><tspan x="89.6" y="0" class="st1 st2">i</tspan><tspan x="91.8" y="0" class="st1 st2">e</tspan><tspan x="96.7" y="0" class="st1 st2">r</tspan></text>
<text id="XMLID_231_" transform="matrix(1.0013 0 0 1 49.0847 253.5051)"><tspan x="0" y="0" class="st1 st2">L</tspan><tspan x="4.1" y="0" class="st1 st2">o</tspan><tspan x="9.4" y="0" class="st1 st2">w</tspan><tspan x="15.7" y="0" class="st1 st2"> </tspan><tspan x="18" y="0" class="st1 st2">F</tspan><tspan x="22" y="0" class="st1 st2">ee</tspan><tspan x="31.8" y="0" class="st1 st2">s</tspan></text>
<text id="XMLID_226_" transform="matrix(1.0013 0 0 1 49.0847 270.2473)"><tspan x="0" y="0" class="st1 st2">L</tspan><tspan x="4.1" y="0" class="st1 st2">i</tspan><tspan x="6.3" y="0" class="st1 st2">qu</tspan><tspan x="16.6" y="0" class="st1 st2">i</tspan><tspan x="18.7" y="0" class="st1 st2">d</tspan><tspan x="23.9" y="0" class="st1 st2">i</tspan><tspan x="26" y="0" class="st1 st2">t</tspan><tspan x="29.1" y="0" class="st1 st2">y</tspan></text>
<text id="XMLID_221_" transform="matrix(1.0013 0 0 1 49.0847 286.9894)"><tspan x="0" y="0" class="st1 st2">C</tspan><tspan x="5" y="0" class="st1 st2">r</tspan><tspan x="8.3" y="0" class="st1 st2">o</tspan><tspan x="13.5" y="0" class="st1 st2">ss</tspan><tspan x="21.3" y="0" class="st1 st2">-</tspan><tspan x="23.7" y="0" class="st1 st2">B</tspan><tspan x="28.9" y="0" class="st1 st2">o</tspan><tspan x="34.1" y="0" class="st1 st2">r</tspan><tspan x="37.4" y="0" class="st1 st2">d</tspan><tspan x="42.5" y="0" class="st1 st2">e</tspan><tspan x="47.4" y="0" class="st1 st2">r</tspan><tspan x="50.7" y="0" class="st1 st2"> T</tspan><tspan x="57.9" y="0" class="st1 st2">r</tspan><tspan x="61.1" y="0" class="st1 st2">a</tspan><tspan x="65.9" y="0" class="st1 st2">n</tspan><tspan x="71" y="0" class="st1 st2">s</tspan><tspan x="74.9" y="0" class="st1 st2">a</tspan><tspan x="79.7" y="0" class="st1 st2">c</tspan><tspan x="83.6" y="0" class="st1 st2">t</tspan><tspan x="86.6" y="0" class="st1 st2">i</tspan><tspan x="88.8" y="0" class="st1 st2">o</tspan><tspan x="94" y="0" class="st1 st2">n</tspan></text>
<text id="XMLID_216_" transform="matrix(1.0013 0 0 1 49.0847 303.7316)"><tspan x="0" y="0" class="st1 st2">S</tspan><tspan x="4.8" y="0" class="st1 st2">e</tspan><tspan x="9.7" y="0" class="st1 st2">l</tspan><tspan x="11.8" y="0" class="st1 st2">e</tspan><tspan x="16.7" y="0" class="st1 st2">c</tspan><tspan x="20.6" y="0" class="st1 st2">t</tspan><tspan x="23.6" y="0" class="st1 st2"> </tspan><tspan x="26" y="0" class="st1 st2">Y</tspan><tspan x="30.7" y="0" class="st1 st2">o</tspan><tspan x="35.9" y="0" class="st1 st2">u</tspan><tspan x="41" y="0" class="st1 st2">r</tspan><tspan x="44.3" y="0" class="st1 st2"> </tspan><tspan x="46.7" y="0" class="st1 st2">P</tspan><tspan x="51.6" y="0" class="st1 st2">r</tspan><tspan x="54.9" y="0" class="st1 st2">o</tspan><tspan x="60.1" y="0" class="st1 st2">p</tspan><tspan x="65.2" y="0" class="st1 st2">e</tspan><tspan x="70.1" y="0" class="st1 st2">r</tspan><tspan x="73.4" y="0" class="st1 st2">t</tspan><tspan x="76.4" y="0" class="st1 st2">y</tspan></text>
<text id="XMLID_211_" transform="matrix(1.0013 0 0 1 49.0847 320.4816)"><tspan x="0" y="0" class="st1 st2">I</tspan><tspan x="2.2" y="0" class="st1 st2">n</tspan><tspan x="7.3" y="0" class="st1 st2">c</tspan><tspan x="11.2" y="0" class="st1 st2">o</tspan><tspan x="16.4" y="0" class="st1 st2">m</tspan><tspan x="24.4" y="0" class="st1 st2">e</tspan><tspan x="29.2" y="0" class="st1 st2"> </tspan><tspan x="31.6" y="0" class="st1 st2">f</tspan><tspan x="34.5" y="0" class="st1 st2">r</tspan><tspan x="37.8" y="0" class="st1 st2">o</tspan><tspan x="43" y="0" class="st1 st2">m </tspan><tspan x="53.3" y="0" class="st1 st2">P</tspan><tspan x="58.3" y="0" class="st1 st2">r</tspan><tspan x="61.5" y="0" class="st1 st2">o</tspan><tspan x="66.8" y="0" class="st1 st2">p</tspan><tspan x="71.9" y="0" class="st1 st2">e</tspan><tspan x="76.8" y="0" class="st1 st2">r</tspan><tspan x="80" y="0" class="st1 st2">t</tspan><tspan x="83.1" y="0" class="st1 st2">y</tspan></text>
<text id="XMLID_208_" transform="matrix(1.0013 0 0 1 49.0847 337.216)"><tspan x="0" y="0" class="st1 st2">O</tspan><tspan x="6.5" y="0" class="st1 st2">n</tspan><tspan x="11.6" y="0" class="st1 st2">-</tspan><tspan x="14" y="0" class="st1 st2">G</tspan><tspan x="20.1" y="0" class="st1 st2">o</tspan><tspan x="25.3" y="0" class="st1 st2">i</tspan><tspan x="27.5" y="0" class="st1 st2">n</tspan><tspan x="32.6" y="0" class="st1 st2">g</tspan><tspan x="37.5" y="0" class="st1 st2"> </tspan><tspan x="39.8" y="0" class="st1 st2">M</tspan><tspan x="47.6" y="0" class="st1 st2">a</tspan><tspan x="52.4" y="0" class="st1 st2">n</tspan><tspan x="57.5" y="0" class="st1 st2">a</tspan><tspan x="62.3" y="0" class="st1 st2">g</tspan><tspan x="67.1" y="0" class="st1 st2">e</tspan><tspan x="72" y="0" class="st1 st2">m</tspan><tspan x="80" y="0" class="st1 st2">e</tspan><tspan x="84.9" y="0" class="st1 st2">n</tspan><tspan x="90" y="0" class="st1 st2">t</tspan><tspan x="93.1" y="0" class="st1 st2"> </tspan><tspan x="95.4" y="0" class="st1 st2">F</tspan><tspan x="99.4" y="0" class="st1 st2">ee</tspan><tspan x="109.2" y="0" class="st1 st2">s</tspan></text>
<text id="XMLID_206_" transform="matrix(1.0013 0 0 1 49.0847 353.9504)"><tspan x="0" y="0" class="st1 st2">P</tspan><tspan x="4.9" y="0" class="st1 st2">r</tspan><tspan x="8.2" y="0" class="st1 st2">o</tspan><tspan x="13.4" y="0" class="st1 st2">fi</tspan><tspan x="18.4" y="0" class="st1 st2">t</tspan><tspan x="21.5" y="0" class="st1 st2"> </tspan><tspan x="23.8" y="0" class="st1 st2">S</tspan><tspan x="28.6" y="0" class="st1 st2">h</tspan><tspan x="33.7" y="0" class="st1 st2">a</tspan><tspan x="38.5" y="0" class="st1 st2">r</tspan><tspan x="41.8" y="0" class="st1 st2">i</tspan><tspan x="44" y="0" class="st1 st2">n</tspan><tspan x="49.1" y="0" class="st1 st2">g</tspan><tspan x="53.9" y="0" class="st1 st2"> </tspan><tspan x="56.3" y="0" class="st1 st2">(</tspan><tspan x="58.5" y="0" class="st1 st2">80</tspan><tspan x="68.1" y="0" class="st1 st2">/</tspan><tspan x="71.2" y="0" class="st1 st2">20</tspan><tspan x="80.8" y="0" class="st1 st2">)</tspan></text>
<text id="XMLID_201_" transform="matrix(1.0013 0 0 1 510.8184 33.0919)"><tspan x="0" y="0" class="st0 st3 st2">R</tspan><tspan x="6" y="0" class="st0 st3 st2">E</tspan><tspan x="11.6" y="0" class="st0 st3 st2">I</tspan><tspan x="14.9" y="0" class="st0 st3 st2">T</tspan></text>
<text id="XMLID_199_" transform="matrix(0 -0.9987 1 0 33.5994 88.6572)"><tspan x="0" y="0" class="st1 st4">M</tspan><tspan x="7.8" y="0" class="st1 st4">a</tspan><tspan x="12.6" y="0" class="st1 st4">r</tspan><tspan x="15.9" y="0" class="st1 st4">k</tspan><tspan x="20.1" y="0" class="st1 st4">e</tspan><tspan x="25" y="0" class="st1 st4">t</tspan></text>
<text id="XMLID_197_" transform="matrix(0 -0.9987 1 0 33.5994 198.7686)"><tspan x="0" y="0" class="st1 st4">C</tspan><tspan x="5" y="0" class="st1 st4">o</tspan><tspan x="10.3" y="0" class="st1 st4">r</tspan><tspan x="13.5" y="0" class="st1 st4">e</tspan><tspan x="18.4" y="0" class="st1 st4"> </tspan><tspan x="20.8" y="0" class="st1 st4">B</tspan><tspan x="26" y="0" class="st1 st4">u</tspan><tspan x="31.1" y="0" class="st1 st4">s</tspan><tspan x="35" y="0" class="st1 st4">i</tspan><tspan x="37.2" y="0" class="st1 st4">n</tspan><tspan x="42.3" y="0" class="st1 st4">e</tspan><tspan x="47.2" y="0" class="st1 st4">ss</tspan><tspan x="55" y="0" class="st1 st4"> </tspan><tspan x="57.4" y="0" class="st1 st4">-</tspan><tspan x="59.8" y="0" class="st1 st4"> </tspan><tspan x="62.2" y="0" class="st1 st4">A</tspan><tspan x="67.5" y="0" class="st1 st4">ss</tspan><tspan x="75.3" y="0" class="st1 st4">e</tspan><tspan x="80.2" y="0" class="st1 st4">t</tspan></text>
<text id="XMLID_194_" transform="matrix(0 -0.9987 1 0 33.5994 324.9619)"><tspan x="0" y="0" class="st1 st4">P</tspan><tspan x="4.9" y="0" class="st1 st4">l</tspan><tspan x="7.1" y="0" class="st1 st4">a</tspan><tspan x="11.9" y="0" class="st1 st4">tf</tspan><tspan x="17.9" y="0" class="st1 st4">o</tspan><tspan x="23.1" y="0" class="st1 st4">r</tspan><tspan x="26.4" y="0" class="st1 st4">m </tspan><tspan x="36.7" y="0" class="st1 st4">B</tspan><tspan x="41.9" y="0" class="st1 st4">u</tspan><tspan x="47" y="0" class="st1 st4">s</tspan><tspan x="50.9" y="0" class="st1 st4">i</tspan><tspan x="53.1" y="0" class="st1 st4">n</tspan><tspan x="58.3" y="0" class="st1 st4">e</tspan><tspan x="63.2" y="0" class="st1 st4">s</tspan><tspan x="67.1" y="0" class="st1 st4">s</tspan></text>
<text id="XMLID_191_" transform="matrix(1.0013 0 0 1 206.1441 33.0919)"><tspan x="0" y="0" class="st0 st3 st2 st5">AY</tspan><tspan x="15.3" y="0" class="st0 st3 st2">T</tspan><tspan x="20.8" y="0" class="st0 st3 st2 st6">O</tspan><tspan x="28.7" y="0" class="st0 st3 st2">S</tspan></text>
<text id="XMLID_186_" transform="matrix(1.0013 0 0 1 249.1038 33.0919)"><tspan x="0" y="0" class="st0 st3 st2">A</tspan><tspan x="6.5" y="0" class="st0 st3 st2">l</tspan><tspan x="9.7" y="0" class="st0 st3 st2">t.</tspan><tspan x="17.2" y="0" class="st0 st3 st2">E</tspan><tspan x="22.8" y="0" class="st0 st3 st2">s</tspan><tspan x="27.5" y="0" class="st0 st3 st2">t</tspan><tspan x="31.8" y="0" class="st0 st3 st2">a</tspan><tspan x="37.7" y="0" class="st0 st3 st2">t</tspan><tspan x="42.1" y="0" class="st0 st3 st2">e</tspan></text>
<text id="XMLID_182_" transform="matrix(1.0013 0 0 1 311.8623 33.0919)"><tspan x="0" y="0" class="st0 st3 st2">R</tspan><tspan x="6" y="0" class="st0 st3 st2">e</tspan><tspan x="11.8" y="0" class="st0 st3 st2">a</tspan><tspan x="17.6" y="0" class="st0 st3 st2">l</tspan></text>
<text id="XMLID_178_" transform="matrix(1.0013 0 0 1 352.6285 33.0919)"><tspan x="0" y="0" class="st0 st3 st2">R</tspan><tspan x="6" y="0" class="st0 st3 st2">e</tspan><tspan x="11.8" y="0" class="st0 st3 st2">a</tspan><tspan x="17.6" y="0" class="st0 st3 st2">li</tspan><tspan x="24.2" y="0" class="st0 st3 st2">s</tspan><tspan x="28.9" y="0" class="st0 st3 st2">t</tspan><tspan x="33.2" y="0" class="st0 st3 st2">o</tspan></text>
<text id="XMLID_174_" transform="matrix(1.0013 0 0 1 406.6696 33.0919)"><tspan x="0" y="0" class="st0 st3 st2">A</tspan><tspan x="6.5" y="0" class="st0 st3 st2">t</tspan><tspan x="10.8" y="0" class="st0 st3 st2">l</tspan><tspan x="14.1" y="0" class="st0 st3 st2">a</tspan><tspan x="19.9" y="0" class="st0 st3 st2">n</tspan><tspan x="26" y="0" class="st0 st3 st2">t</tspan></text>
<g id="XMLID_1_">
	<g id="XMLID_170_">
		<text id="XMLID_27_" transform="matrix(1.0013 0 0 1 455.4618 27.8541)"><tspan x="0" y="0" class="st0 st3 st2">D</tspan><tspan x="6.6" y="0" class="st0 st3 st2">i</tspan><tspan x="9.9" y="0" class="st0 st3 st2">r</tspan><tspan x="14.2" y="0" class="st0 st3 st2">e</tspan><tspan x="20" y="0" class="st0 st3 st2">c</tspan><tspan x="24.8" y="0" class="st0 st3 st2">t</tspan><tspan x="29.1" y="0" class="st0 st3 st2"> </tspan></text>
	</g>
	<g id="XMLID_167_">
		<text id="XMLID_25_" transform="matrix(1.0013 0 0 1 449.9501 38.3297)"><tspan x="0" y="0" class="st0 st3 st2">P</tspan><tspan x="5.8" y="0" class="st0 st3 st2">u</tspan><tspan x="11.9" y="0" class="st0 st3 st2">r</tspan><tspan x="16.2" y="0" class="st0 st3 st2">c</tspan><tspan x="21" y="0" class="st0 st3 st2">h</tspan><tspan x="27.1" y="0" class="st0 st3 st2">a</tspan><tspan x="33" y="0" class="st0 st3 st2">s</tspan><tspan x="37.7" y="0" class="st0 st3 st2">e</tspan></text>
	</g>
</g>
<line id="XMLID_2_" class="st7" x1="6.5" y1="47.3" x2="552.8" y2="47.3"/>
<rect id="XMLID_6_" x="204.9" y="48.1" class="st8" width="34.5" height="318.9"/>
<line id="XMLID_165_" class="st7" x1="6.5" y1="97.1" x2="552.8" y2="97.1"/>
<line id="XMLID_3_" class="st7" x1="6.6" y1="222.2" x2="549.9" y2="222.2"/>
<g id="XMLID_13_">
	<polygon id="XMLID_20_" class="st9" points="226.2,66.7 222.6,60.6 218.9,66.7 222.6,68.9 	"/>
	<polygon id="XMLID_18_" class="st9" points="218.9,67.8 222.6,72.9 226.2,67.8 222.6,70 	"/>
</g>
<g id="XMLID_316_">
	<polygon id="XMLID_318_" class="st9" points="226.2,350.9 222.6,344.8 218.9,350.9 222.6,353 	"/>
	<polygon id="XMLID_317_" class="st9" points="218.9,351.9 222.6,357.1 226.2,351.9 222.6,354.1 	"/>
</g>
<g id="XMLID_360_">
	<polygon id="XMLID_362_" class="st9" points="226.2,66.7 222.6,60.6 218.9,66.7 222.6,68.9 	"/>
	<polygon id="XMLID_361_" class="st9" points="218.9,67.8 222.6,72.9 226.2,67.8 222.6,70 	"/>
</g>
<g id="XMLID_22_">
	<polygon id="XMLID_149_" class="st9" points="226.2,109.4 222.6,103.3 218.9,109.4 222.6,111.5 	"/>
	<polygon id="XMLID_148_" class="st9" points="218.9,110.4 222.6,115.6 226.2,110.4 222.6,112.6 	"/>
</g>
<g id="XMLID_153_">
	<polygon id="XMLID_160_" class="st9" points="226.2,126.3 222.6,120.2 218.9,126.3 222.6,128.5 	"/>
	<polygon id="XMLID_156_" class="st9" points="218.9,127.3 222.6,132.5 226.2,127.3 222.6,129.5 	"/>
</g>
<g id="XMLID_283_">
	<polygon id="XMLID_285_" class="st9" points="226.2,143.2 222.6,137.1 218.9,143.2 222.6,145.4 	"/>
	<polygon id="XMLID_284_" class="st9" points="218.9,144.2 222.6,149.4 226.2,144.2 222.6,146.4 	"/>
</g>
<g id="XMLID_286_">
	<polygon id="XMLID_288_" class="st9" points="226.2,160.1 222.6,154 218.9,160.1 222.6,162.3 	"/>
	<polygon id="XMLID_287_" class="st9" points="218.9,161.1 222.6,166.3 226.2,161.1 222.6,163.3 	"/>
</g>
<g id="XMLID_289_">
	<polygon id="XMLID_291_" class="st9" points="226.2,177 222.6,170.9 218.9,177 222.6,179.2 	"/>
	<polygon id="XMLID_290_" class="st9" points="218.9,178 222.6,183.2 226.2,178 222.6,180.2 	"/>
</g>
<g id="XMLID_292_">
	<polygon id="XMLID_294_" class="st9" points="226.2,193.9 222.6,187.8 218.9,193.9 222.6,196.1 	"/>
	<polygon id="XMLID_293_" class="st9" points="218.9,194.9 222.6,200.1 226.2,194.9 222.6,197.1 	"/>
</g>
<g id="XMLID_295_">
	<polygon id="XMLID_297_" class="st9" points="226.2,210.8 222.6,204.7 218.9,210.8 222.6,213 	"/>
	<polygon id="XMLID_296_" class="st9" points="218.9,211.8 222.6,217 226.2,211.8 222.6,214 	"/>
</g>
<g id="XMLID_357_">
	<polygon id="XMLID_359_" class="st9" points="226.2,109.4 222.6,103.3 218.9,109.4 222.6,111.5 	"/>
	<polygon id="XMLID_358_" class="st9" points="218.9,110.4 222.6,115.6 226.2,110.4 222.6,112.6 	"/>
</g>
<g id="XMLID_354_">
	<polygon id="XMLID_356_" class="st9" points="226.2,126.3 222.6,120.2 218.9,126.3 222.6,128.5 	"/>
	<polygon id="XMLID_355_" class="st9" points="218.9,127.3 222.6,132.5 226.2,127.3 222.6,129.5 	"/>
</g>
<g id="XMLID_348_">
	<polygon id="XMLID_350_" class="st9" points="226.2,160.1 222.6,154 218.9,160.1 222.6,162.3 	"/>
	<polygon id="XMLID_349_" class="st9" points="218.9,161.1 222.6,166.3 226.2,161.1 222.6,163.3 	"/>
</g>
<g id="XMLID_345_">
	<polygon id="XMLID_347_" class="st9" points="226.2,177 222.6,170.9 218.9,177 222.6,179.2 	"/>
	<polygon id="XMLID_346_" class="st9" points="218.9,178 222.6,183.2 226.2,178 222.6,180.2 	"/>
</g>
<g id="XMLID_342_">
	<polygon id="XMLID_344_" class="st9" points="226.2,193.9 222.6,187.8 218.9,193.9 222.6,196.1 	"/>
	<polygon id="XMLID_343_" class="st9" points="218.9,194.9 222.6,200.1 226.2,194.9 222.6,197.1 	"/>
</g>
<g id="XMLID_339_">
	<polygon id="XMLID_341_" class="st9" points="226.2,210.8 222.6,204.7 218.9,210.8 222.6,213 	"/>
	<polygon id="XMLID_340_" class="st9" points="218.9,211.8 222.6,217 226.2,211.8 222.6,214 	"/>
</g>
<g id="XMLID_351_">
	<g id="XMLID_298_">
		<polygon id="XMLID_300_" class="st9" points="226.2,233.4 222.6,227.3 218.9,233.4 222.6,235.5 		"/>
		<polygon id="XMLID_299_" class="st9" points="218.9,234.4 222.6,239.6 226.2,234.4 222.6,236.6 		"/>
	</g>
	<g id="XMLID_301_">
		<polygon id="XMLID_303_" class="st9" points="226.2,250.7 222.6,244.6 218.9,250.7 222.6,252.9 		"/>
		<polygon id="XMLID_302_" class="st9" points="218.9,251.7 222.6,256.9 226.2,251.7 222.6,253.9 		"/>
	</g>
	<g id="XMLID_304_">
		<polygon id="XMLID_306_" class="st9" points="226.2,268 222.6,262 218.9,268 222.6,270.2 		"/>
		<polygon id="XMLID_305_" class="st9" points="218.9,269.1 222.6,274.2 226.2,269.1 222.6,271.3 		"/>
	</g>
	<g id="XMLID_307_">
		<polygon id="XMLID_309_" class="st9" points="226.2,285.4 222.6,279.3 218.9,285.4 222.6,287.5 		"/>
		<polygon id="XMLID_308_" class="st9" points="218.9,286.4 222.6,291.6 226.2,286.4 222.6,288.6 		"/>
	</g>
	<g id="XMLID_310_">
		<polygon id="XMLID_312_" class="st9" points="226.2,302.7 222.6,296.6 218.9,302.7 222.6,304.9 		"/>
		<polygon id="XMLID_311_" class="st9" points="218.9,303.8 222.6,308.9 226.2,303.7 222.6,306 		"/>
	</g>
	<g id="XMLID_313_">
		<polygon id="XMLID_315_" class="st9" points="226.2,320 222.6,314 218.9,320 222.6,322.2 		"/>
		<polygon id="XMLID_314_" class="st9" points="218.9,321.1 222.6,326.2 226.2,321.1 222.6,323.3 		"/>
	</g>
	<g id="XMLID_336_">
		<polygon id="XMLID_338_" class="st9" points="226.2,233.4 222.6,227.3 218.9,233.4 222.6,235.5 		"/>
		<polygon id="XMLID_337_" class="st9" points="218.9,234.4 222.6,239.6 226.2,234.4 222.6,236.6 		"/>
	</g>
	<g id="XMLID_333_">
		<polygon id="XMLID_335_" class="st9" points="226.2,250.7 222.6,244.6 218.9,250.7 222.6,252.9 		"/>
		<polygon id="XMLID_334_" class="st9" points="218.9,251.7 222.6,256.9 226.2,251.7 222.6,253.9 		"/>
	</g>
	<g id="XMLID_330_">
		<polygon id="XMLID_332_" class="st9" points="226.2,268 222.6,262 218.9,268 222.6,270.2 		"/>
		<polygon id="XMLID_331_" class="st9" points="218.9,269.1 222.6,274.2 226.2,269.1 222.6,271.3 		"/>
	</g>
	<g id="XMLID_327_">
		<polygon id="XMLID_329_" class="st9" points="226.2,285.4 222.6,279.3 218.9,285.4 222.6,287.5 		"/>
		<polygon id="XMLID_328_" class="st9" points="218.9,286.4 222.6,291.6 226.2,286.4 222.6,288.6 		"/>
	</g>
	<g id="XMLID_324_">
		<polygon id="XMLID_326_" class="st9" points="226.2,302.7 222.6,296.6 218.9,302.7 222.6,304.9 		"/>
		<polygon id="XMLID_325_" class="st9" points="218.9,303.8 222.6,308.9 226.2,303.7 222.6,306 		"/>
	</g>
	<g id="XMLID_321_">
		<polygon id="XMLID_323_" class="st9" points="226.2,320 222.6,314 218.9,320 222.6,322.2 		"/>
		<polygon id="XMLID_322_" class="st9" points="218.9,321.1 222.6,326.2 226.2,321.1 222.6,323.3 		"/>
	</g>
</g>
<g id="XMLID_17_">
	<polygon id="XMLID_320_" class="st9" points="226.2,350.9 222.6,344.8 218.9,350.9 222.6,353 	"/>
	<polygon id="XMLID_319_" class="st9" points="218.9,351.9 222.6,357.1 226.2,351.9 222.6,354.1 	"/>
</g>
<g id="XMLID_406_">
	<polygon id="XMLID_408_" points="276.4,66.7 272.7,60.6 269.1,66.7 272.7,68.9 	"/>
	<polygon id="XMLID_407_" points="269.1,67.8 272.7,72.9 276.4,67.8 272.7,70 	"/>
</g>
<g id="XMLID_397_">
	<polygon id="XMLID_399_" points="276.4,143.2 272.7,137.1 269.1,143.2 272.7,145.3 	"/>
	<polygon id="XMLID_398_" points="269.1,144.2 272.7,149.4 276.4,144.2 272.7,146.4 	"/>
</g>
<g id="XMLID_352_">
	<g id="XMLID_382_">
		<polygon id="XMLID_384_" points="276.4,233.4 272.7,227.3 269.1,233.4 272.7,235.5 		"/>
		<polygon id="XMLID_383_" points="269.1,234.4 272.7,239.6 276.4,234.4 272.7,236.6 		"/>
	</g>
	<g id="XMLID_379_">
		<polygon id="XMLID_381_" points="276.4,250.7 272.7,244.6 269.1,250.7 272.7,252.9 		"/>
		<polygon id="XMLID_380_" points="269.1,251.7 272.7,256.9 276.4,251.7 272.7,253.9 		"/>
	</g>
	<g id="XMLID_376_">
		<polygon id="XMLID_378_" points="276.4,268 272.7,262 269.1,268 272.7,270.2 		"/>
		<polygon id="XMLID_377_" points="269.1,269.1 272.7,274.2 276.4,269.1 272.7,271.3 		"/>
	</g>
	<g id="XMLID_373_">
		<polygon id="XMLID_375_" points="276.4,285.4 272.7,279.3 269.1,285.4 272.7,287.5 		"/>
		<polygon id="XMLID_374_" points="269.1,286.4 272.7,291.6 276.4,286.4 272.7,288.6 		"/>
	</g>
	<g id="XMLID_370_">
		<polygon id="XMLID_372_" points="276.4,302.7 272.7,296.6 269.1,302.7 272.7,304.9 		"/>
		<polygon id="XMLID_371_" points="269.1,303.8 272.7,308.9 276.4,303.7 272.7,306 		"/>
	</g>
</g>
<g id="XMLID_367_">
	<polygon id="XMLID_369_" points="276.4,335.2 272.7,329.1 269.1,335.2 272.7,337.3 	"/>
	<polygon id="XMLID_368_" points="269.1,336.2 272.7,341.4 276.4,336.2 272.7,338.4 	"/>
</g>
<g id="XMLID_451_">
	<polygon id="XMLID_453_" points="325.6,84.7 322,78.6 318.3,84.7 322,86.9 	"/>
	<polygon id="XMLID_452_" points="318.3,85.8 322,90.9 325.6,85.8 322,88 	"/>
</g>
<g id="XMLID_363_">
	<polygon id="XMLID_365_" points="474.7,84.7 471.1,78.6 467.4,84.7 471.1,86.9 	"/>
	<polygon id="XMLID_364_" points="467.4,85.8 471.1,90.9 474.7,85.8 471.1,88 	"/>
</g>
<g id="XMLID_366_">
	<polygon id="XMLID_386_" points="523.6,84.7 519.9,78.6 516.3,84.7 519.9,86.9 	"/>
	<polygon id="XMLID_385_" points="516.3,85.8 519.9,90.9 523.6,85.8 519.9,88 	"/>
</g>
<g id="XMLID_442_">
	<polygon id="XMLID_444_" points="325.6,143.2 322,137.1 318.3,143.2 322,145.3 	"/>
	<polygon id="XMLID_443_" points="318.3,144.2 322,149.4 325.6,144.2 322,146.4 	"/>
</g>
<g id="XMLID_353_">
	<g id="XMLID_427_">
		<polygon id="XMLID_429_" points="325.6,233.4 322,227.3 318.3,233.4 322,235.5 		"/>
		<polygon id="XMLID_428_" points="318.3,234.4 322,239.6 325.6,234.4 322,236.6 		"/>
	</g>
	<g id="XMLID_424_">
		<polygon id="XMLID_426_" points="325.6,250.7 322,244.6 318.3,250.7 322,252.9 		"/>
		<polygon id="XMLID_425_" points="318.3,251.7 322,256.9 325.6,251.7 322,253.9 		"/>
	</g>
	<g id="XMLID_421_">
		<polygon id="XMLID_423_" points="325.6,268 322,262 318.3,268 322,270.2 		"/>
		<polygon id="XMLID_422_" points="318.3,269.1 322,274.2 325.6,269.1 322,271.3 		"/>
	</g>
	<g id="XMLID_418_">
		<polygon id="XMLID_420_" points="325.6,285.4 322,279.3 318.3,285.4 322,287.5 		"/>
		<polygon id="XMLID_419_" points="318.3,286.4 322,291.6 325.6,286.4 322,288.6 		"/>
	</g>
	<g id="XMLID_415_">
		<polygon id="XMLID_417_" points="325.6,302.7 322,296.6 318.3,302.7 322,304.9 		"/>
		<polygon id="XMLID_416_" points="318.3,303.8 322,308.9 325.6,303.7 322,306 		"/>
	</g>
</g>
<g id="XMLID_496_">
	<polygon id="XMLID_498_" points="375.7,66.7 372,60.6 368.3,66.7 372,68.9 	"/>
	<polygon id="XMLID_497_" points="368.3,67.8 372,72.9 375.7,67.8 372,70 	"/>
</g>
<g id="XMLID_487_">
	<polygon id="XMLID_489_" points="375.7,143.2 372,137.1 368.3,143.2 372,145.3 	"/>
	<polygon id="XMLID_488_" points="368.3,144.2 372,149.4 375.7,144.2 372,146.4 	"/>
</g>
<g id="XMLID_460_">
	<polygon id="XMLID_462_" points="375.7,301.6 372,295.5 368.3,301.6 372,303.7 	"/>
	<polygon id="XMLID_461_" points="368.3,302.6 372,307.8 375.7,302.6 372,304.8 	"/>
</g>
<g id="XMLID_457_">
	<polygon id="XMLID_459_" points="375.7,318.9 372,312.8 368.3,318.9 372,321.1 	"/>
	<polygon id="XMLID_458_" points="368.3,320 372,325.1 375.7,320 372,322.2 	"/>
</g>
<g id="XMLID_541_">
	<polygon id="XMLID_543_" points="425,66.7 421.3,60.6 417.7,66.7 421.3,68.9 	"/>
	<polygon id="XMLID_542_" points="417.7,67.8 421.3,72.9 425,67.8 421.3,70 	"/>
</g>
<g id="XMLID_532_">
	<polygon id="XMLID_534_" points="425,143.2 421.3,137.1 417.7,143.2 421.3,145.3 	"/>
	<polygon id="XMLID_533_" points="417.7,144.2 421.3,149.4 425,144.2 421.3,146.4 	"/>
</g>
<g id="XMLID_387_">
	<g id="XMLID_517_">
		<polygon id="XMLID_519_" points="425,233.4 421.3,227.3 417.7,233.4 421.3,235.5 		"/>
		<polygon id="XMLID_518_" points="417.7,234.4 421.3,239.6 425,234.4 421.3,236.6 		"/>
	</g>
	<g id="XMLID_514_">
		<polygon id="XMLID_516_" points="425,250.7 421.3,244.6 417.7,250.7 421.3,252.9 		"/>
		<polygon id="XMLID_515_" points="417.7,251.7 421.3,256.9 425,251.7 421.3,253.9 		"/>
	</g>
	<g id="XMLID_511_">
		<polygon id="XMLID_513_" points="425,268 421.3,262 417.7,268 421.3,270.2 		"/>
		<polygon id="XMLID_512_" points="417.7,269.1 421.3,274.2 425,269.1 421.3,271.3 		"/>
	</g>
	<g id="XMLID_508_">
		<polygon id="XMLID_510_" points="425,285.4 421.3,279.3 417.7,285.4 421.3,287.5 		"/>
		<polygon id="XMLID_509_" points="417.7,286.4 421.3,291.6 425,286.4 421.3,288.6 		"/>
	</g>
</g>
<g id="XMLID_586_">
	<polygon id="XMLID_588_" points="474.7,66.7 471.1,60.6 467.4,66.7 471.1,68.9 	"/>
	<polygon id="XMLID_587_" points="467.4,67.8 471.1,72.9 474.7,67.8 471.1,70 	"/>
</g>
<g id="XMLID_388_">
	<g id="XMLID_583_">
		<polygon id="XMLID_585_" points="474.7,109.4 471.1,103.3 467.4,109.4 471.1,111.5 		"/>
		<polygon id="XMLID_584_" points="467.4,110.4 471.1,115.6 474.7,110.4 471.1,112.6 		"/>
	</g>
	<g id="XMLID_580_">
		<polygon id="XMLID_582_" points="474.7,126.3 471.1,120.2 467.4,126.3 471.1,128.5 		"/>
		<polygon id="XMLID_581_" points="467.4,127.3 471.1,132.5 474.7,127.3 471.1,129.5 		"/>
	</g>
	<g id="XMLID_574_">
		<polygon id="XMLID_576_" points="474.7,160.1 471.1,154 467.4,160.1 471.1,162.3 		"/>
		<polygon id="XMLID_575_" points="467.4,161.1 471.1,166.3 474.7,161.1 471.1,163.3 		"/>
	</g>
	<g id="XMLID_571_">
		<polygon id="XMLID_573_" points="474.7,177 471.1,170.9 467.4,177 471.1,179.2 		"/>
		<polygon id="XMLID_572_" points="467.4,178 471.1,183.2 474.7,178 471.1,180.2 		"/>
	</g>
	<g id="XMLID_565_">
		<polygon id="XMLID_567_" points="474.7,210.8 471.1,204.7 467.4,210.8 471.1,213 		"/>
		<polygon id="XMLID_566_" points="467.4,211.8 471.1,217 474.7,211.8 471.1,214 		"/>
	</g>
</g>
<g id="XMLID_631_">
	<polygon id="XMLID_633_" points="524.3,66.7 520.6,60.6 517,66.7 520.6,68.9 	"/>
	<polygon id="XMLID_632_" points="517,67.8 520.6,72.9 524.3,67.8 520.6,70 	"/>
</g>
<g id="XMLID_628_">
	<polygon id="XMLID_630_" points="524.3,109.4 520.6,103.3 517,109.4 520.6,111.5 	"/>
	<polygon id="XMLID_629_" points="517,110.4 520.6,115.6 524.3,110.4 520.6,112.6 	"/>
</g>
<g id="XMLID_625_">
	<polygon id="XMLID_627_" points="524.3,126.3 520.6,120.2 517,126.3 520.6,128.5 	"/>
	<polygon id="XMLID_626_" points="517,127.3 520.6,132.5 524.3,127.3 520.6,129.5 	"/>
</g>
<g id="XMLID_622_">
	<polygon id="XMLID_624_" points="524.3,143.2 520.6,137.1 517,143.2 520.6,145.3 	"/>
	<polygon id="XMLID_623_" points="517,144.2 520.6,149.4 524.3,144.2 520.6,146.4 	"/>
</g>
<g id="XMLID_619_">
	<polygon id="XMLID_621_" points="524.3,160.1 520.6,154 517,160.1 520.6,162.3 	"/>
	<polygon id="XMLID_620_" points="517,161.1 520.6,166.3 524.3,161.1 520.6,163.3 	"/>
</g>
<g id="XMLID_616_">
	<polygon id="XMLID_618_" points="524.3,177 520.6,170.9 517,177 520.6,179.2 	"/>
	<polygon id="XMLID_617_" points="517,178 520.6,183.2 524.3,178 520.6,180.2 	"/>
</g>
<g id="XMLID_610_">
	<polygon id="XMLID_612_" points="524.3,210.8 520.6,204.7 517,210.8 520.6,213 	"/>
	<polygon id="XMLID_611_" points="517,211.8 520.6,217 524.3,211.8 520.6,214 	"/>
</g>
</svg>
