<?xml version="1.0" encoding="utf-8"?>
<!-- Generator: Adobe Illustrator 19.0.0, SVG Export Plug-In . SVG Version: 6.00 Build 0)  -->
<svg version="1.1" id="Layer_1" xmlns="http://www.w3.org/2000/svg" xmlns:xlink="http://www.w3.org/1999/xlink" x="0px" y="0px"
	 viewBox="95 -95 260 260" style="enable-background:new 95 -95 260 260;" xml:space="preserve">
<g>
	<path d="M225-93c70.5-0.1,128,57.5,128,128.2c0,70.3-57.5,127.7-128,127.8S97,105.5,97,34.8C97-35.5,154.5-92.9,225-93z
		 M224.7,99.9c19.3,4.2,35.7,0.9,45.4-17.3c8.1-15.2,5.9-29.5-8.1-41.1c13.6-4.2,20.6-13.5,21.9-26.8c2.1-19.9-10.2-29.5-27-35.5
		c1.6-6.3,3.1-12.1,4.7-18.3c-4.3-1.1-8.1-2.1-12.1-3.1c-1.8,6.3-3.4,12-5,18c-4.3-1.2-8.3-2.2-12.5-3.3c1.6-6.2,3.1-12.1,4.6-18.2
		c-4.2-1.1-8-2.2-12-3.2c-1.8,6.3-3.4,12.1-5,18.1c-8.3-2.2-16.2-4.2-24.3-6.4c-1.2,4.1-2.2,7.7-3.2,11.4c-0.4,1.6-0.7,3.2-1.1,5.1
		c2.3,0.7,4.3,1.2,6.4,1.8c5,1.5,7,4.4,5.7,9.4c-6.4,24.3-12.8,48.5-19.4,72.8c-1.2,4.6-4.5,6.1-9.3,5.1c-2.2-0.5-4.4-1-6.9-1.5
		c-1.5,5.6-2.9,10.8-4.3,16.3c8.3,2.3,16.1,4.4,24.3,6.7c-1.6,6.2-3,11.9-4.6,18.1c4,1.1,7.8,2.2,12,3.3c1.7-6.1,3.4-12,5.1-18.1
		c4.3,1.2,8.2,2.3,12.5,3.4c-1.6,6.2-3.1,12.1-4.6,18.2c4.4,1.1,8.1,2.1,12.1,3.1C221.5,111.6,223,106,224.7,99.9z"/>
	<path d="M205,75.3c3.3-12.1,6.3-23.3,9.3-34.5c0.1-0.3,0.4-0.5,1.1-1.6c9,2.7,18.5,4.9,27.5,8.5c7.8,3.2,10.2,11.7,7.3,20.9
		c-2.9,9.3-9.4,14.7-17.8,13.3C223.3,80.3,214.5,77.6,205,75.3z"/>
	<path d="M219.4,21.5c2.8-10.7,5.6-20.9,8.4-31.7c8.2,2.4,16.1,4.3,23.7,7c8.1,3,10.8,10.4,7.9,19.4c-2.8,8.6-9.3,12.9-17.4,11.1
		C234.7,25.7,227.4,23.6,219.4,21.5z"/>
</g>
</svg>
