<?xml version="1.0" encoding="utf-8"?>
<!-- Generator: Adobe Illustrator 19.0.0, SVG Export Plug-In . SVG Version: 6.00 Build 0)  -->
<svg version="1.1" id="Layer_1" xmlns="http://www.w3.org/2000/svg" xmlns:xlink="http://www.w3.org/1999/xlink" x="0px" y="0px"
	 viewBox="0 0 257 257" style="enable-background:new 0 0 257 257;" xml:space="preserve">
<path d="M149.3,158.6c-6.4-11-3.8-8.8-15.5-15.6c-2.1,0-4.2,0-6.4,0c-6.9,0.1-12.3,3.4-16,8.9c-4.4,6.6-8.8,13.1-14.9,18.3
	c-5.1,4.3-10.9,7.9-17.4,9.7c-4,1.1-8,2.2-12.2,2.1c-2.3-0.1-4.7,0-7,0c-9.8,0.1-18.5-3.1-26.5-8.5c-3-2-6.1-4.2-8.7-6.8
	c-2.8-2.8-5.5-5.9-7.3-9.4c-3.2-6.3-7-12.6-7.1-20c-1.9-4.2-1.4-8.8-0.8-13.1c0.8-5.8,2.1-11.5,4.7-17c2.7-5.8,6-11.2,10.3-15.6
	c6.1-6.4,13.6-11.2,22.3-13.6c4-1.1,8-2.2,12.2-2c2.2,0.1,4.3,0,6.5,0c10.1-0.1,19.1,3.2,27.3,8.9c6.8,4.7,12,10.9,16.4,17.7
	c4.9,7.4,7.4,9.2,15,11.8c3.2,1.1,6.4,0.9,9.9-0.2c4.3-1.5,8.4-3.1,11.2-6.7c1.6-2,2.6-4.6,4.1-7.2c0-1.1-0.1-2.6,0-4.1
	c0.5-5.7-1.3-10.9-4-15.8c-2.5-4.6-4.6-9.6-5.6-14.6c-1.2-6-2.2-12.1-0.7-18.6c1.4-6,2.5-12,5.4-17.3c3.6-6.6,8-12.6,14.4-17
	c3.1-2.1,6-4.7,9.5-6.2c4.7-2.1,9.5-3.5,14.6-4.7c4.8-1.1,9.5-1,14.1-0.7c4.6,0.3,9.1,1.9,13.5,3.4c9.5,3.2,16.8,9.1,23.1,16.4
	c4.4,5.1,6.9,11.4,9.5,17.5c0.8,1.8,0.7,4,1.1,6c0.3,1.9,0.8,3.7,1,5.6c0.2,1.8,0.1,3.7,0,5.5c-0.1,10.8-3.5,20.7-9.7,29.5
	c-5.6,8-12.8,14.2-21.9,18c-3.2,1.3-6.3,2.4-9.8,3.1c-3.1,0.6-6.4,0-9,1c-3,1.2-5.8,0.3-8.7,0.8c-3.1,0.5-6,1.7-8.6,3.3
	c-3.8,2.3-8.6,8.9-9.1,13.1c-0.9,6.8-0.3,13.6,4.8,18.9c2.8,2.9,6.4,4.9,10.6,5.9c2.6,0.6,5.1,0.5,7.6,0.9c8.5,1.3,17.2,1.7,25,5.9
	c8,4.4,14.6,10.3,19.9,17.8c3.8,5.4,5.5,11.7,7.9,17.7c1.2,3.2,1.7,14.2,1,18c-0.6,3.5-1.4,7.1-2.5,10.4c-1.2,3.5-2.6,6.9-4.5,10.1
	c-4.1,7.1-9.6,12.9-16.3,17.7c-4.3,3.1-9.4,4.8-14.1,7c-2.2,1-5,1.1-7.5,1.2c-5.2,0.2-10.3,0-15.5,0.1c-7.7,0.2-14.3-3.2-20.7-6.7
	c-4.2-2.3-8-5.4-11.2-9.1c-5.1-6-9.7-12.2-11.7-20.2c-2.8-11.4-3.4-11.2-2.8-19.8c0.3-4.8,1.4-9.6,3.2-14.1c1-2.6,2.1-5.1,3.5-7.6
	c1.7-3.1,3-6.5,3.9-9.9c0.6-2.3,0.2-4.9,0.3-7.4C149.4,160.5,149.3,159.6,149.3,158.6z"/>
</svg>
