<?xml version="1.0" encoding="utf-8"?>
<!-- Generator: Adobe Illustrator 19.0.0, SVG Export Plug-In . SVG Version: 6.00 Build 0)  -->
<svg version="1.1" id="Layer_1" xmlns="http://www.w3.org/2000/svg" xmlns:xlink="http://www.w3.org/1999/xlink" x="0px" y="0px"
	 viewBox="0 0 260 260" style="enable-background:new 0 0 260 260;" xml:space="preserve">
<g>
	<path d="M206.6,129.6c-22.1-10-44.3-19.7-66.1-30.1c-6.3-3-11.3-3.1-17.6-0.3c-21.5,9.7-43.3,18.8-65,28.2c-1.5,0.6-3,1.1-5.7,2.2
		C79.1,86.5,105.4,44.5,132,1.9c25.4,42.8,50.4,84.9,75.4,127C207.2,129.1,206.9,129.3,206.6,129.6z"/>
	<path d="M52.5,132.8c14.9-6.5,29.2-12.7,43.5-19c11-4.8,21.9-9.7,32.9-14.4c1.6-0.7,4-1,5.5-0.3c24.3,11,48.6,22.2,73.5,33.7
		c-1.4,1-2.4,1.8-3.4,2.4c-23,13.7-46,27.3-69.1,40.9c-1.5,0.9-4.3,1.3-5.7,0.5c-25.3-14-50.5-28.3-75.7-42.5
		C53.6,133.9,53.4,133.6,52.5,132.8z"/>
	<path d="M207.4,151.1c-25,35.5-49.9,71-75.3,107.1c-26.5-35.7-52.6-71-78.7-106.2c0.1-0.2,0.3-0.4,0.4-0.6c1.5,0.8,3.1,1.6,4.6,2.4
		c23.2,13.4,46.4,26.7,69.6,40.2c2.8,1.6,4.8,1.7,7.6,0c22.1-13.6,44.3-27,66.5-40.5c1.6-1,3.5-1.5,5.3-2.3
		C207.2,151.2,207.4,151.1,207.4,151.1z"/>
	<path d="M207.2,151.2c0-0.1,0-0.2,0.1-0.3c0,0.1,0,0.1,0.1,0.2C207.4,151.1,207.2,151.2,207.2,151.2z"/>
</g>
</svg>
