<?xml version="1.0" encoding="iso-8859-1"?>
<!-- Generator: Adobe Illustrator 19.0.0, SVG Export Plug-In . SVG Version: 6.00 Build 0)  -->
<svg version="1.1" id="Layer_1" xmlns="http://www.w3.org/2000/svg" xmlns:xlink="http://www.w3.org/1999/xlink" x="0px" y="0px"
	 viewBox="0 0 81.191 19" style="enable-background:new 0 0 81.191 19;" xml:space="preserve">
<g>
	<g>
		<polygon style="fill:#AC1700;" points="0,19 0,0 19,0 19,5 5,5 5,19 		"/>
		<polygon points="19,8 19,19 8,19 8,15.334 15.332,15.334 15.332,8 		"/>
	</g>
	<g>
		<path d="M24.942,15.734l5.04-12.78h2.016l5.022,12.78h-2.628l-1.17-3.186H28.74l-1.17,3.186H24.942z M30.99,5.636l-1.836,5.166
			h3.618L30.99,5.636z"/>
		<path d="M38.262,2.954l3.15,6.156l3.204-6.156h2.682l-4.645,8.316v4.464h-2.466v-4.5l-4.626-8.28H38.262z"/>
		<path d="M57.935,5.132h-4.067v10.602h-2.484V5.132h-4.086V2.954h10.638V5.132z"/>
		<path d="M64.254,15.824c-0.899,0-1.722-0.183-2.466-0.549c-0.744-0.366-1.383-0.852-1.917-1.458
			c-0.534-0.606-0.944-1.299-1.232-2.079c-0.288-0.78-0.433-1.578-0.433-2.394c0-0.851,0.153-1.667,0.459-2.448
			c0.307-0.78,0.732-1.47,1.278-2.07c0.546-0.6,1.19-1.077,1.935-1.431c0.744-0.354,1.555-0.531,2.431-0.531
			c0.899,0,1.722,0.189,2.466,0.567c0.744,0.378,1.38,0.873,1.908,1.485c0.527,0.612,0.936,1.308,1.224,2.088
			c0.288,0.78,0.432,1.572,0.432,2.376c0,0.852-0.152,1.665-0.459,2.439c-0.306,0.774-0.729,1.458-1.269,2.052
			c-0.54,0.594-1.183,1.068-1.926,1.422C65.94,15.647,65.13,15.824,64.254,15.824z M60.708,9.344c0,0.552,0.081,1.087,0.243,1.602
			c0.162,0.516,0.396,0.972,0.702,1.368c0.306,0.396,0.681,0.714,1.125,0.954c0.443,0.24,0.948,0.36,1.512,0.36
			c0.576,0,1.083-0.123,1.521-0.369c0.438-0.246,0.807-0.573,1.107-0.981c0.3-0.408,0.528-0.867,0.684-1.377
			c0.155-0.51,0.233-1.029,0.233-1.557c0-0.552-0.084-1.086-0.252-1.602c-0.168-0.516-0.404-0.972-0.711-1.368
			c-0.306-0.396-0.678-0.711-1.116-0.945c-0.438-0.234-0.933-0.351-1.484-0.351c-0.576,0-1.083,0.123-1.521,0.369
			c-0.438,0.246-0.81,0.57-1.115,0.972c-0.307,0.402-0.538,0.858-0.693,1.368C60.786,8.297,60.708,8.816,60.708,9.344z"/>
		<path d="M79.644,6.302c-0.084-0.084-0.237-0.198-0.459-0.342c-0.222-0.144-0.492-0.285-0.81-0.423
			c-0.318-0.138-0.663-0.255-1.035-0.351c-0.372-0.096-0.75-0.144-1.134-0.144c-0.685,0-1.194,0.126-1.53,0.378
			c-0.336,0.252-0.504,0.606-0.504,1.062c0,0.264,0.063,0.483,0.188,0.657c0.126,0.174,0.31,0.327,0.55,0.459
			c0.239,0.132,0.542,0.252,0.908,0.36c0.366,0.108,0.789,0.222,1.27,0.342c0.624,0.168,1.19,0.348,1.701,0.54
			c0.51,0.192,0.941,0.432,1.296,0.72c0.353,0.288,0.627,0.633,0.818,1.035c0.192,0.402,0.288,0.897,0.288,1.485
			c0,0.684-0.129,1.269-0.387,1.755c-0.258,0.486-0.603,0.879-1.035,1.179c-0.432,0.3-0.935,0.519-1.512,0.657
			c-0.576,0.138-1.177,0.207-1.8,0.207c-0.961,0-1.908-0.144-2.845-0.432c-0.936-0.288-1.775-0.696-2.52-1.224l1.098-2.142
			c0.108,0.108,0.303,0.249,0.585,0.423c0.282,0.174,0.615,0.348,0.999,0.522c0.384,0.174,0.811,0.321,1.278,0.441
			c0.468,0.12,0.948,0.18,1.44,0.18c1.367,0,2.052-0.438,2.052-1.314c0-0.288-0.078-0.528-0.234-0.72
			c-0.156-0.192-0.378-0.36-0.666-0.504c-0.288-0.144-0.636-0.276-1.044-0.396c-0.408-0.12-0.864-0.246-1.368-0.378
			c-0.611-0.168-1.143-0.351-1.593-0.549c-0.45-0.198-0.825-0.429-1.125-0.693c-0.3-0.264-0.525-0.576-0.675-0.936
			c-0.15-0.36-0.226-0.786-0.226-1.278c0-0.648,0.12-1.224,0.36-1.728c0.24-0.504,0.573-0.924,0.999-1.26
			c0.426-0.335,0.921-0.591,1.485-0.765c0.563-0.174,1.17-0.261,1.817-0.261c0.9,0,1.729,0.141,2.484,0.423
			c0.756,0.282,1.416,0.615,1.979,0.999L79.644,6.302z"/>
	</g>
</g>
</svg>
