<?xml version="1.0" encoding="utf-8"?>
<!-- Generator: Adobe Illustrator 19.0.0, SVG Export Plug-In . SVG Version: 6.00 Build 0)  -->
<svg version="1.1" id="Layer_1" xmlns="http://www.w3.org/2000/svg" xmlns:xlink="http://www.w3.org/1999/xlink" x="0px" y="0px"
	 viewBox="0 0 751.9 393" style="enable-background:new 0 0 751.9 393;" xml:space="preserve">
<style type="text/css">
	.st0{fill-rule:evenodd;clip-rule:evenodd;fill:#C00000;}
	.st1{fill-rule:evenodd;clip-rule:evenodd;fill:none;stroke:#FFFFFF;stroke-miterlimit:10;}
	.st2{fill:#C00000;}
	.st3{fill:none;stroke:#FFFFFF;stroke-width:1.544;stroke-linecap:round;stroke-miterlimit:10;}
	.st4{fill-rule:evenodd;clip-rule:evenodd;fill:#FFFFFF;}
	
		.st5{fill-rule:evenodd;clip-rule:evenodd;fill:none;stroke:#C00000;stroke-width:1.4961;stroke-linecap:round;stroke-linejoin:round;stroke-miterlimit:10;}
	.st6{fill:#FFFFFF;}
	.st7{font-family:'OpenSans-Bold';}
	.st8{font-size:9px;}
	
		.st9{fill:none;stroke:#C00000;stroke-width:1.5;stroke-linecap:round;stroke-linejoin:round;stroke-miterlimit:10;stroke-dasharray:3,4;}
	.st10{font-family:'OpenSans-SemiBold';}
	.st11{font-family:'OpenSans-Regular';}
	.st12{font-size:7px;}
	.st13{font-size:20px;}
	.st14{fill:none;stroke:#FFFFFF;stroke-linecap:round;stroke-miterlimit:10;stroke-dasharray:3,4;}
	.st15{fill:none;stroke:#C00000;stroke-width:1.5;stroke-linejoin:round;stroke-miterlimit:10;}
	.st16{fill:none;}
	.st17{fill:#0C0A0B;}
	.st18{fill:#000001;}
	.st19{fill:none;stroke:#000000;stroke-width:1.3;stroke-linecap:round;stroke-miterlimit:10;}
	.st20{fill-rule:evenodd;clip-rule:evenodd;stroke:#C00000;stroke-miterlimit:10;}
	.st21{fill:#9B0000;}
</style>
<path id="XMLID_99_" class="st0" d="M320.7,282.8v20.9h-54.2c-11,0-19.9-8.9-19.9-19.9v-21.8h53.3
	C311.3,261.9,320.7,271.3,320.7,282.8z"/>
<path id="XMLID_10_" class="st1" d="M317.4,282.8v18.3h-50.2c-9.7,0-17.5-7.8-17.5-17.5v-19.2h49.3
	C309.2,264.5,317.4,272.7,317.4,282.8z"/>
<path id="XMLID_111_" class="st0" d="M320.7,282.8v20.9h-54.2c-11,0-19.9-8.9-19.9-19.9v-21.8h53.3
	C311.3,261.9,320.7,271.3,320.7,282.8z"/>
<path id="XMLID_107_" class="st1" d="M317.4,282.8v18.3h-50.2c-9.7,0-17.5-7.8-17.5-17.5v-19.2h49.3
	C309.2,264.5,317.4,272.7,317.4,282.8z"/>
<path id="XMLID_139_" class="st0" d="M320.7,364.1V385h-54.2c-11,0-19.9-8.9-19.9-19.9v-21.8h53.3
	C311.3,343.2,320.7,352.6,320.7,364.1z"/>
<path id="XMLID_122_" class="st1" d="M317.4,364.1v18.3h-50.2c-9.7,0-17.5-7.8-17.5-17.5v-19.2h49.3
	C309.2,345.8,317.4,354,317.4,364.1z"/>
<path id="XMLID_119_" class="st0" d="M320.7,364.1V385h-54.2c-11,0-19.9-8.9-19.9-19.9v-21.8h53.3
	C311.3,343.2,320.7,352.6,320.7,364.1z"/>
<path id="XMLID_100_" class="st1" d="M317.4,364.1v18.3h-50.2c-9.7,0-17.5-7.8-17.5-17.5v-19.2h49.3
	C309.2,345.8,317.4,354,317.4,364.1z"/>
<path id="XMLID_25_" class="st2" d="M602.6,242.3H372.8c-20.8,0-37.6-16.9-37.6-37.6v-149H565c20.8,0,37.6,16.9,37.6,37.6V242.3z"/>
<path id="XMLID_368_" class="st3" d="M596.9,236.7H376.6c-19.7,0-35.7-16-35.7-35.7V61.2h220.4c19.7,0,35.7,16,35.7,35.7V236.7z"/>
<g id="XMLID_346_">
	<path id="XMLID_354_" class="st4" d="M436.8,193.7v20.9h-53.7c-11.3,0-20.5-9.2-20.5-20.5v-21.3h53.3
		C427.4,172.8,436.8,182.1,436.8,193.7z"/>
	<path id="XMLID_351_" class="st5" d="M434.1,193.7v18.1h-49.9c-10.5,0-19.1-8-19.1-17.8v-18.5h49.5
		C425.4,175.5,434.1,183.6,434.1,193.7z"/>
</g>
<image style="overflow:visible;" width="208" height="47" id="XMLID_778_" xlink:href="9ED3FA38.png"  transform="matrix(0.315 0 0 0.3064 676.9128 8.7959)">
</image>
<g id="XMLID_26_">
	<g id="XMLID_32_">
		<text id="XMLID_293_" transform="matrix(1 0 0 1 436.365 75.1151)"><tspan x="0" y="0" class="st6 st7 st8">A</tspan><tspan x="5.9" y="0" class="st6 st7 st8">Y</tspan><tspan x="11.4" y="0" class="st6 st7 st8">T</tspan><tspan x="16.8" y="0" class="st6 st7 st8">O</tspan><tspan x="24.1" y="0" class="st6 st7 st8">S</tspan></text>
	</g>
	<g id="XMLID_29_">
		<text id="XMLID_292_" transform="matrix(1 0 0 1 467.3259 75.1151)"><tspan x="0" y="0" class="st6 st7 st8">P</tspan><tspan x="5.5" y="0" class="st6 st7 st8">o</tspan><tspan x="11.3" y="0" class="st6 st7 st8">r</tspan><tspan x="15.2" y="0" class="st6 st7 st8">tf</tspan><tspan x="22.8" y="0" class="st6 st7 st8">o</tspan><tspan x="28.5" y="0" class="st6 st7 st8">li</tspan><tspan x="34.1" y="0" class="st6 st7 st8">o</tspan></text>
	</g>
</g>
<line id="XMLID_770_" class="st9" x1="78.2" y1="199.2" x2="143.5" y2="199.2"/>
<polygon id="XMLID_769_" class="st0" points="142.5,196.4 148.3,199.2 142.5,202.1 142.5,196.4 "/>
<line id="XMLID_768_" class="st9" x1="207.8" y1="196.4" x2="322.8" y2="196.4"/>
<polygon id="XMLID_767_" class="st0" points="321.8,193.5 327.6,196.4 321.8,199.2 321.8,193.5 "/>
<text id="XMLID_105_" transform="matrix(1 0 0 1 385.7346 191.0295)"><tspan x="0" y="0" class="st2 st10 st8">AY</tspan><tspan x="11.3" y="0" class="st2 st10 st8">T</tspan><tspan x="16.6" y="0" class="st2 st10 st8">O</tspan><tspan x="23.7" y="0" class="st2 st10 st8">S</tspan></text>
<text id="XMLID_101_" transform="matrix(1 0 0 1 386.2058 202.553)"><tspan x="0" y="0" class="st2 st10 st8">A</tspan><tspan x="6" y="0" class="st2 st10 st8">ss</tspan><tspan x="14.6" y="0" class="st2 st10 st8">e</tspan><tspan x="19.9" y="0" class="st2 st10 st8">t</tspan><tspan x="23.6" y="0" class="st2 st10 st8">s</tspan></text>
<g id="XMLID_327_">
	<text id="XMLID_291_" transform="matrix(1 0 0 1 551.67 98.6716)"><tspan x="0" y="0" class="st6 st11 st12">R</tspan><tspan x="4.2" y="0" class="st6 st11 st12">e</tspan><tspan x="8.3" y="0" class="st6 st11 st12">s</tspan><tspan x="11.6" y="0" class="st6 st11 st12">i</tspan><tspan x="13.4" y="0" class="st6 st11 st12">d</tspan><tspan x="17.7" y="0" class="st6 st11 st12">e</tspan><tspan x="21.7" y="0" class="st6 st11 st12">n</tspan><tspan x="26" y="0" class="st6 st11 st12">t</tspan><tspan x="28.6" y="0" class="st6 st11 st12">i</tspan><tspan x="30.4" y="0" class="st6 st11 st12">a</tspan><tspan x="34.4" y="0" class="st6 st11 st12">l</tspan></text>
</g>
<g id="XMLID_304_">
	<text id="XMLID_283_" transform="matrix(1 0 0 1 559.2819 110.195)"><tspan x="0" y="0" class="st6 st11 st12">A</tspan><tspan x="4.5" y="0" class="st6 st11 st12">ss</tspan><tspan x="11" y="0" class="st6 st11 st12">e</tspan><tspan x="15.1" y="0" class="st6 st11 st12">t</tspan><tspan x="17.6" y="0" class="st6 st11 st12">s</tspan></text>
</g>
<g id="XMLID_52_">
	<text id="XMLID_274_" transform="matrix(1 0 0 1 555.4196 149.0231)"><tspan x="0" y="0" class="st6 st11 st12">B</tspan><tspan x="4.3" y="0" class="st6 st11 st12">u</tspan><tspan x="8.6" y="0" class="st6 st11 st12">s</tspan><tspan x="11.9" y="0" class="st6 st11 st12">i</tspan><tspan x="13.7" y="0" class="st6 st11 st12">n</tspan><tspan x="18" y="0" class="st6 st11 st12">e</tspan><tspan x="22.1" y="0" class="st6 st11 st12">s</tspan><tspan x="25.3" y="0" class="st6 st11 st12">s</tspan></text>
</g>
<g id="XMLID_37_">
	<text id="XMLID_273_" transform="matrix(1 0 0 1 559.2819 160.5388)"><tspan x="0" y="0" class="st6 st11 st12">A</tspan><tspan x="4.5" y="0" class="st6 st11 st12">ss</tspan><tspan x="11" y="0" class="st6 st11 st12">e</tspan><tspan x="15.1" y="0" class="st6 st11 st12">t</tspan><tspan x="17.6" y="0" class="st6 st11 st12">s</tspan></text>
</g>
<g id="XMLID_33_">
	<text id="XMLID_239_" transform="matrix(1 0 0 1 555.5255 199.3669)"><tspan x="0" y="0" class="st6 st11 st12">V</tspan><tspan x="4.2" y="0" class="st6 st11 st12">a</tspan><tspan x="8.2" y="0" class="st6 st11 st12">c</tspan><tspan x="11.4" y="0" class="st6 st11 st12">a</tspan><tspan x="15.4" y="0" class="st6 st11 st12">t</tspan><tspan x="18" y="0" class="st6 st11 st12">i</tspan><tspan x="19.8" y="0" class="st6 st11 st12">o</tspan><tspan x="24.2" y="0" class="st6 st11 st12">n</tspan></text>
</g>
<g id="XMLID_28_">
	<text id="XMLID_272_" transform="matrix(1 0 0 1 559.2819 210.8903)"><tspan x="0" y="0" class="st6 st11 st12">A</tspan><tspan x="4.5" y="0" class="st6 st11 st12">ss</tspan><tspan x="11" y="0" class="st6 st11 st12">e</tspan><tspan x="15.1" y="0" class="st6 st11 st12">t</tspan><tspan x="17.6" y="0" class="st6 st11 st12">s</tspan></text>
</g>
<g id="XMLID_740_">
	<text id="XMLID_269_" transform="matrix(1 0 0 1 207.7634 187.9059)"><tspan x="0" y="0" class="st11 st8">S</tspan><tspan x="5.1" y="0" class="st11 st8">t</tspan><tspan x="8.4" y="0" class="st11 st8">r</tspan><tspan x="11.9" y="0" class="st11 st8">a</tspan><tspan x="17.1" y="0" class="st11 st8">t</tspan><tspan x="20.3" y="0" class="st11 st8">e</tspan><tspan x="25.6" y="0" class="st11 st8">g</tspan><tspan x="30.8" y="0" class="st11 st8">i</tspan><tspan x="33.1" y="0" class="st11 st8">c</tspan><tspan x="37.2" y="0" class="st11 st8"> </tspan><tspan x="39.1" y="0" class="st11 st8">A</tspan><tspan x="44.8" y="0" class="st11 st8">c</tspan><tspan x="49" y="0" class="st11 st8">qu</tspan><tspan x="60" y="0" class="st11 st8">i</tspan><tspan x="62.3" y="0" class="st11 st8">s</tspan><tspan x="66.5" y="0" class="st11 st8">i</tspan><tspan x="68.9" y="0" class="st11 st8">t</tspan><tspan x="72.1" y="0" class="st11 st8">i</tspan><tspan x="74.5" y="0" class="st11 st8">o</tspan><tspan x="80.1" y="0" class="st11 st8">n</tspan><tspan x="85.6" y="0" class="st11 st8"> </tspan><tspan x="88.8" y="0" class="st11 st8">P</tspan><tspan x="94.1" y="0" class="st11 st8">r</tspan><tspan x="97.6" y="0" class="st11 st8">o</tspan><tspan x="103.2" y="0" class="st11 st8">c</tspan><tspan x="107.4" y="0" class="st11 st8">e</tspan><tspan x="112.6" y="0" class="st11 st8">s</tspan><tspan x="116.8" y="0" class="st11 st8">s</tspan></text>
</g>
<text id="XMLID_35_" transform="matrix(1 0 0 1 263.9881 285.4407)"><tspan x="0" y="0" class="st6 st10 st8">R</tspan><tspan x="5.6" y="0" class="st6 st10 st8">e</tspan><tspan x="11" y="0" class="st6 st10 st8">s</tspan><tspan x="15.3" y="0" class="st6 st10 st8">e</tspan><tspan x="20.7" y="0" class="st6 st10 st8">r</tspan><tspan x="24.4" y="0" class="st6 st10 st8">v</tspan><tspan x="29.4" y="0" class="st6 st10 st8">e</tspan><tspan x="34.8" y="0" class="st6 st10 st8">s</tspan></text>
<polyline id="XMLID_736_" class="st9" points="469.9,243.2 469.9,269.8 469.9,269.8 469.9,291.7 "/>
<polygon id="XMLID_735_" class="st0" points="472.8,290.7 469.9,296.5 467,290.7 472.8,290.7 "/>
<g id="XMLID_104_">
	<path id="XMLID_102_" class="st4" d="M436.8,117.5v20.9h-53.7c-11.3,0-20.5-9.2-20.5-20.5V96.7h53.3
		C427.4,96.7,436.8,106,436.8,117.5z"/>
	<path id="XMLID_344_" class="st5" d="M434.1,117.5v18.1h-49.9c-10.5,0-19.1-8-19.1-17.8V99.4h49.5
		C425.4,99.4,434.1,107.5,434.1,117.5z"/>
</g>
<g id="XMLID_36_">
	<g id="XMLID_31_">
		<text id="XMLID_241_" transform="matrix(1 0 0 1 263.6158 360.9338)"><tspan x="0" y="0" class="st6 st10 st8">D</tspan><tspan x="6.4" y="0" class="st6 st10 st8">i</tspan><tspan x="9" y="0" class="st6 st10 st8">v</tspan><tspan x="14" y="0" class="st6 st10 st8">i</tspan><tspan x="16.6" y="0" class="st6 st10 st8">d</tspan><tspan x="22.2" y="0" class="st6 st10 st8">e</tspan><tspan x="27.5" y="0" class="st6 st10 st8">n</tspan><tspan x="33.3" y="0" class="st6 st10 st8">d</tspan></text>
	</g>
	<g id="XMLID_27_">
		<text id="XMLID_224_" transform="matrix(1 0 0 1 255.3526 372.4573)"><tspan x="0" y="0" class="st6 st10 st8">D</tspan><tspan x="6.4" y="0" class="st6 st10 st8">i</tspan><tspan x="9" y="0" class="st6 st10 st8">s</tspan><tspan x="13.3" y="0" class="st6 st10 st8">t</tspan><tspan x="16.9" y="0" class="st6 st10 st8">r</tspan><tspan x="20.6" y="0" class="st6 st10 st8">i</tspan><tspan x="23.2" y="0" class="st6 st10 st8">bu</tspan><tspan x="34.5" y="0" class="st6 st10 st8">t</tspan><tspan x="38.1" y="0" class="st6 st10 st8">i</tspan><tspan x="40.7" y="0" class="st6 st10 st8">o</tspan><tspan x="46.4" y="0" class="st6 st10 st8">n</tspan><tspan x="52.1" y="0" class="st6 st10 st8">s</tspan></text>
	</g>
</g>
<path id="XMLID_63_" class="st9" d="M231.6,282.9H224c-24.8,0-45-20.1-45-45v0"/>
<polygon id="XMLID_724_" class="st0" points="176.2,238.8 179,233.1 181.9,238.8 176.2,238.8 "/>
<line id="XMLID_723_" class="st9" x1="611.5" y1="90.5" x2="657.5" y2="90.5"/>
<polygon id="XMLID_722_" class="st0" points="612.5,93.4 606.7,90.5 612.5,87.6 612.5,93.4 "/>
<line id="XMLID_721_" class="st9" x1="611.5" y1="149.6" x2="657.5" y2="149.6"/>
<polygon id="XMLID_720_" class="st0" points="612.5,152.4 606.7,149.6 612.5,146.7 612.5,152.4 "/>
<line id="XMLID_719_" class="st9" x1="611.5" y1="212.2" x2="657.5" y2="212.2"/>
<polygon id="XMLID_718_" class="st0" points="612.5,215.1 606.7,212.2 612.5,209.3 612.5,215.1 "/>
<text id="XMLID_717_" transform="matrix(1 0 0 1 169.4978 137.2966)"><tspan x="0" y="0" class="st11 st8">P</tspan><tspan x="5.3" y="0" class="st11 st8">r</tspan><tspan x="8.8" y="0" class="st11 st8">i</tspan><tspan x="11.1" y="0" class="st11 st8">v</tspan><tspan x="15.9" y="0" class="st11 st8">a</tspan><tspan x="21" y="0" class="st11 st8">t</tspan><tspan x="24.3" y="0" class="st11 st8">e</tspan><tspan x="29.5" y="0" class="st11 st8"> </tspan></text>
<text id="XMLID_716_" transform="matrix(1 0 0 1 168.0603 148.82)"><tspan x="0" y="0" class="st11 st8">O</tspan><tspan x="7" y="0" class="st11 st8">w</tspan><tspan x="13.7" y="0" class="st11 st8">n</tspan><tspan x="19.2" y="0" class="st11 st8">e</tspan><tspan x="24.5" y="0" class="st11 st8">r</tspan><tspan x="28" y="0" class="st11 st8">s</tspan></text>
<text id="XMLID_323_" transform="matrix(1 0 0 1 383.5054 114.8434)"><tspan x="0" y="0" class="st2 st10 st8">A</tspan><tspan x="6" y="0" class="st2 st10 st8">ffili</tspan><tspan x="20.2" y="0" class="st2 st10 st8">a</tspan><tspan x="25.6" y="0" class="st2 st10 st8">t</tspan><tspan x="29.2" y="0" class="st2 st10 st8">e</tspan></text>
<text id="XMLID_318_" transform="matrix(1 0 0 1 386.2056 126.3591)"><tspan x="0" y="0" class="st2 st10 st8">A</tspan><tspan x="6" y="0" class="st2 st10 st8">ss</tspan><tspan x="14.6" y="0" class="st2 st10 st8">e</tspan><tspan x="19.9" y="0" class="st2 st10 st8">t</tspan><tspan x="23.6" y="0" class="st2 st10 st8">s</tspan></text>
<g id="XMLID_317_">
	<text id="XMLID_221_" transform="matrix(1 0 0 1 394.063 162.8955)" class="st6 st7 st13">+</text>
</g>
<polyline id="XMLID_708_" class="st14" points="457.7,98.4 486.5,154.3 457.7,212.9 "/>
<line id="XMLID_39_" class="st9" x1="219.4" y1="110.7" x2="322.8" y2="110.7"/>
<polygon id="XMLID_706_" class="st0" points="321.8,107.8 327.6,110.7 321.8,113.6 321.8,107.8 "/>
<g id="XMLID_703_">
	<text id="XMLID_218_" transform="matrix(1 0 0 1 222.7321 102.1872)"><tspan x="0" y="0" class="st11 st8">J</tspan><tspan x="2.6" y="0" class="st11 st8">o</tspan><tspan x="8.2" y="0" class="st11 st8">i</tspan><tspan x="10.6" y="0" class="st11 st8">n</tspan><tspan x="16.1" y="0" class="st11 st8"> </tspan><tspan x="17.9" y="0" class="st11 st8">AY</tspan><tspan x="28.8" y="0" class="st11 st8">T</tspan><tspan x="33.9" y="0" class="st11 st8">O</tspan><tspan x="40.9" y="0" class="st11 st8">S</tspan><tspan x="46" y="0" class="st11 st8"> </tspan><tspan x="48.5" y="0" class="st11 st8">P</tspan><tspan x="53.8" y="0" class="st11 st8">l</tspan><tspan x="56.2" y="0" class="st11 st8">a</tspan><tspan x="61.3" y="0" class="st11 st8">tf</tspan><tspan x="67.7" y="0" class="st11 st8">o</tspan><tspan x="73.4" y="0" class="st11 st8">r</tspan><tspan x="76.9" y="0" class="st11 st8">m</tspan></text>
</g>
<path id="XMLID_98_" class="st9" d="M232.1,364.2h-53.4C106.5,364.2,48,305.7,48,233.6v0"/>
<polygon id="XMLID_701_" class="st0" points="45.1,234.5 48,228.8 50.9,234.5 45.1,234.5 "/>
<path id="XMLID_700_" class="st15" d="M661.4,53.1h30.2c16.7,0,30.2,13.5,30.2,30.2v159.8h-30.2c-16.7,0-30.2-13.5-30.2-30.2V53.1
	L661.4,53.1z"/>
<line id="XMLID_699_" class="st9" x1="438.8" y1="312.8" x2="337" y2="284.1"/>
<polygon id="XMLID_698_" class="st0" points="337.2,287.1 332.4,282.8 338.7,281.5 337.2,287.1 "/>
<line id="XMLID_697_" class="st9" x1="439.3" y1="343.2" x2="337.8" y2="363.5"/>
<polygon id="XMLID_696_" class="st0" points="339.3,366.1 333.1,364.4 338.2,360.4 339.3,366.1 "/>
<g id="XMLID_97_">
	<text id="XMLID_217_" transform="matrix(1 0 0 1 456.6651 364.3212)"><tspan x="0" y="0" class="st11 st8">P</tspan><tspan x="5.3" y="0" class="st11 st8">r</tspan><tspan x="8.8" y="0" class="st11 st8">o</tspan><tspan x="14.4" y="0" class="st11 st8">fi</tspan><tspan x="19.8" y="0" class="st11 st8">t</tspan><tspan x="23.1" y="0" class="st11 st8">s</tspan></text>
</g>
<g id="XMLID_681_">
	<text id="XMLID_210_" transform="matrix(1 0 0 1 29.1306 221.7809)"><tspan x="0" y="0" class="st11 st8">I</tspan><tspan x="2.3" y="0" class="st11 st8">n</tspan><tspan x="7.9" y="0" class="st11 st8">v</tspan><tspan x="12.6" y="0" class="st11 st8">e</tspan><tspan x="17.8" y="0" class="st11 st8">s</tspan><tspan x="22" y="0" class="st11 st8">t</tspan><tspan x="25.3" y="0" class="st11 st8">o</tspan><tspan x="30.9" y="0" class="st11 st8">r</tspan><tspan x="34.4" y="0" class="st11 st8">s</tspan></text>
</g>
<g id="XMLID_678_">
	<text id="XMLID_207_" transform="matrix(1 0 0 1 164.9978 225.0075)"><tspan x="0" y="0" class="st11 st8">A</tspan><tspan x="5.4" y="0" class="st11 st8">Y</tspan><tspan x="10.3" y="0" class="st11 st8">T</tspan><tspan x="15.5" y="0" class="st11 st8">O</tspan><tspan x="22.6" y="0" class="st11 st8">S</tspan></text>
</g>
<g id="XMLID_675_">
	<text id="XMLID_203_" transform="matrix(1 0 0 1 672.9509 109.6794)"><tspan x="0" y="0" class="st11 st8">R</tspan><tspan x="5.4" y="0" class="st11 st8">e</tspan><tspan x="10.7" y="0" class="st11 st8">s</tspan><tspan x="14.9" y="0" class="st11 st8">i</tspan><tspan x="17.2" y="0" class="st11 st8">d</tspan><tspan x="22.7" y="0" class="st11 st8">e</tspan><tspan x="28" y="0" class="st11 st8">n</tspan><tspan x="33.5" y="0" class="st11 st8">t</tspan></text>
</g>
<g id="XMLID_672_">
	<text id="XMLID_170_" transform="matrix(1 0 0 1 672.6541 169.1091)"><tspan x="0" y="0" class="st11 st8">B</tspan><tspan x="5.6" y="0" class="st11 st8">u</tspan><tspan x="11.1" y="0" class="st11 st8">s</tspan><tspan x="15.3" y="0" class="st11 st8">i</tspan><tspan x="17.6" y="0" class="st11 st8">n</tspan><tspan x="23.1" y="0" class="st11 st8">e</tspan><tspan x="28.4" y="0" class="st11 st8">s</tspan><tspan x="32.6" y="0" class="st11 st8">s</tspan></text>
</g>
<g id="XMLID_669_">
	<text id="XMLID_163_" transform="matrix(1 0 0 1 673.5369 226.3669)"><tspan x="0" y="0" class="st11 st8">V</tspan><tspan x="5.4" y="0" class="st11 st8">a</tspan><tspan x="10.6" y="0" class="st11 st8">c</tspan><tspan x="14.7" y="0" class="st11 st8">a</tspan><tspan x="19.9" y="0" class="st11 st8">t</tspan><tspan x="23.1" y="0" class="st11 st8">i</tspan><tspan x="25.5" y="0" class="st11 st8">o</tspan><tspan x="31.1" y="0" class="st11 st8">n</tspan></text>
</g>
<g id="XMLID_34_">
	<path id="XMLID_13_" class="st2" d="M690.2,92.1l-2.2,2.2c-0.3,0.3-0.8,0.3-1.1-0.1l-2.3-3.1l0.6-1.3c0.2-0.4,0.6-0.5,1-0.3
		L690.2,92.1z"/>
	<path id="XMLID_12_" class="st2" d="M690.2,92.1l2.2,2.2c0.3,0.3,0.8,0.3,1.1-0.1l2.3-3.1l-0.6-1.3c-0.2-0.4-0.6-0.5-1-0.3
		L690.2,92.1z"/>
</g>
<path id="XMLID_9_" d="M696.5,68.9h-8.4c-3.1,0-5.6,2.5-5.6,5.6v1.7c0,0.8,0.1,1.5,0.4,2.2l0.2,0.7c0.1,0.2,0.1,0.4,0.1,0.7v0.4
	l1.2-0.8c0.6-0.4,0.9-1.1,0.9-1.8v-2.4c0,0,5.6-2.1,9.9,1.4c0,0,0,0.5,0,1c0,0.7,0.4,1.4,0.9,1.8l1.2,0.8h0v-0.4
	c0-0.2,0-0.5,0.1-0.7l0.2-0.7c0.2-0.7,0.4-1.5,0.4-2.2v-5.9C697.9,69.5,697.3,68.9,696.5,68.9z"/>
<path id="XMLID_24_" d="M700.5,92.2l-4.1-1.5c0-0.2,0-0.4-0.2-0.5l-1.2-1.3v-2.2c0.1-0.1,0.3-0.2,0.4-0.3c1.5-1.5,2.4-3.5,2.4-5.6
	v-1.7c0.5-1,0.7-2.1,0.7-3.2v-7c0-0.4-0.3-0.7-0.7-0.7h-9.9c-3.5,0-6.3,2.8-6.3,6.3v1.4c0,1.1,0.2,2.2,0.7,3.2v1.5
	c0,2.5,1.1,4.7,2.8,6.1v2.2l-1.2,1.3c-0.1,0.1-0.2,0.3-0.2,0.5l-4.1,1.5c-1.4,0.5-2.3,1.8-2.3,3.3v5.1c0,0.4,0.3,0.7,0.7,0.7
	s0.7-0.3,0.7-0.7v-5.1c0-0.9,0.6-1.7,1.4-2l4.3-1.6l1.8,2.7c0.2,0.3,0.6,0.6,1,0.6c0,0,0.1,0,0.1,0c0.4,0,0.7-0.1,1-0.4l1.1-1.1v6.9
	c0,0.4,0.3,0.7,0.7,0.7s0.7-0.3,0.7-0.7v-6.9l1.1,1.1c0.3,0.3,0.6,0.4,1,0.4c0,0,0.1,0,0.1,0c0.4,0,0.8-0.3,1-0.6l1.8-2.7l4.3,1.6
	c0.8,0.3,1.4,1.1,1.4,2v5.1c0,0.4,0.3,0.7,0.7,0.7s0.7-0.3,0.7-0.7v-5.1C702.8,94,701.9,92.7,700.5,92.2z M683.8,80.6V79
	c0-0.1,0-0.2-0.1-0.3c-0.4-0.9-0.6-1.8-0.6-2.8v-1.4c0-2.7,2.2-5,5-5h9.2v6.4c0,1-0.2,1.9-0.6,2.8c0,0.1-0.1,0.2-0.1,0.3v1.9
	c0,1.8-0.7,3.4-2,4.7c-1.3,1.2-3,1.8-4.8,1.7C686.4,87,683.8,84.1,683.8,80.6z M689.7,88.5c0.2,0,0.3,0,0.5,0c1.3,0,2.5-0.3,3.6-0.9
	v1.2l-3.6,2.4l-3.6-2.4v-1.2C687.6,88.1,688.6,88.4,689.7,88.5z M687.5,93.8C687.5,93.8,687.5,93.9,687.5,93.8
	C687.5,93.9,687.5,93.8,687.5,93.8l-2.1-3.1l0.7-0.7l3.1,2.1L687.5,93.8z M692.9,93.8C692.9,93.8,692.9,93.9,692.9,93.8
	C692.9,93.9,692.9,93.8,692.9,93.8l-1.7-1.6l3.1-2.1l0.7,0.7L692.9,93.8z"/>
<path id="XMLID_2_" d="M682.5,97.1c-0.4,0-0.7,0.3-0.7,0.7v2.8c0,0.4,0.3,0.7,0.7,0.7s0.7-0.3,0.7-0.7v-2.8
	C683.1,97.4,682.8,97.1,682.5,97.1z"/>
<path id="XMLID_1_" d="M697.9,97.1c-0.4,0-0.7,0.3-0.7,0.7v2.8c0,0.4,0.3,0.7,0.7,0.7s0.7-0.3,0.7-0.7v-2.8
	C698.6,97.4,698.3,97.1,697.9,97.1z"/>
<g id="XMLID_20_">
	<path id="XMLID_75_" class="st2" d="M190.3,119.9l-2.7-16.1H186h0h-1.6l-2.7,16.1c0,0.2,0,0.4,0.2,0.6l0,0l0,0l3.7,4.1
		c0.2,0.2,0.6,0.2,0.8,0l3.7-4.1l0,0l0,0C190.2,120.4,190.3,120.2,190.3,119.9z"/>
	<g id="XMLID_103_">
		<polygon id="XMLID_74_" class="st2" points="186,99.7 186,99.7 186,99.7 186,99.7 186,99.7 183,101.8 184.4,103.9 186,103.9 
			186,103.9 187.5,103.9 189,101.8 		"/>
	</g>
	<polygon id="XMLID_79_" class="st16" points="184.9,103 187.1,103 187.8,102 186,100.7 184.2,102 	"/>
	<path id="XMLID_83_" class="st16" d="M187.3,99.4c1.7,1.2,3.1,2.2,3.1,2.2l2.6-5.2l-2.5-1C187.2,99.6,188,98.5,187.3,99.4z"/>
	<path id="XMLID_84_" class="st16" d="M196,82c0-0.4-0.1-0.7-0.3-1V83C195.9,82.7,196,82.4,196,82z"/>
	<polygon id="XMLID_88_" class="st16" points="186.8,104.8 185.2,104.8 182.6,119.9 186,123.7 189.4,119.9 	"/>
	<path id="XMLID_123_" class="st16" d="M181.5,95.4l-2.5,1l2.6,5.2c0.1-0.1,1.5-1.1,3.1-2.2L181.5,95.4z"/>
	<path id="XMLID_305_" class="st16" d="M186,91.3c3.6,0,6.5-2.9,6.5-6.5c0-0.8,0-5.7,0-6.4c-0.2-0.3-0.9-1-2.2-2.4
		c-3.2,2.1-7.3,3.2-11.1,3v0.3v5.5C179.2,88.1,182,91.3,186,91.3z"/>
	<path id="XMLID_60_" d="M205.5,114.4c-0.5,0-0.9,0.4-0.9,0.9v8.3c0,0.3-0.2,0.5-0.5,0.5h-4.8v-17.5c0-0.5-0.4-0.9-0.9-0.9
		s-0.9,0.4-0.9,0.9v17.5H188l2.8-3.1c0.3-0.3,0.4-0.8,0.4-1.3c0,0,0,0,0,0l-2.7-15.7l0.7-1.1c0.4,0.3,0.7,0.6,1.3,0.6
		c0.6,0,1.1-0.3,1.4-0.9v0l2.8-5.6l6.4,2.5c0.2,0.1,3.6,1.6,3.6,5.6v6c0,0.5,0.4,0.9,0.9,0.9s0.9-0.4,0.9-0.9v-6
		c0-5.3-4.5-7.2-4.7-7.2c0,0,0,0,0,0l-10.6-4.1v-2.5c1.7-1.3,2.9-3.3,3.1-5.5c0.8-0.1,1.6-0.4,2.3-0.9c0.8-0.7,1.3-1.8,1.3-2.9
		c0-0.9-0.3-1.8-0.9-2.5v-3.3c0-6.1-4.9-11-11-11s-11,4.9-11,11v3.4c-0.6,0.7-0.9,1.5-0.9,2.4c0,1.1,0.5,2.1,1.3,2.9
		c0.6,0.5,1.4,0.9,2.3,0.9c0.3,2.3,1.5,4.3,3.3,5.6v2.4l-10.6,4.1c0,0,0,0,0,0c-0.2,0.1-4.7,2-4.7,7.2v18.5c0,1.2,1,2.3,2.3,2.3h8.5
		c0.5,0,0.9-0.4,0.9-0.9s-0.4-0.9-0.9-0.9h-1.9v-17.5c0-0.5-0.4-0.9-0.9-0.9s-0.9,0.4-0.9,0.9v17.5h-4.8c-0.3,0-0.5-0.2-0.5-0.5
		v-18.5c0-4,3.4-5.5,3.6-5.6l6.4-2.5l2.8,5.6c0.3,0.5,0.8,0.9,1.4,0.9c0.6,0,0.9-0.3,1.3-0.6l0.7,1.1l-2.7,15.7c0,0,0,0,0,0
		c-0.1,0.5,0.1,0.9,0.4,1.3l2.8,3.1h-3.6c-0.5,0-0.9,0.4-0.9,0.9s0.4,0.9,0.9,0.9h23.7c1.2,0,2.3-1,2.3-2.3v-8.3
		C206.4,114.8,206,114.4,205.5,114.4z M194.3,80c0.6,0.1,1.2,0.5,1.5,1c0.2,0.3,0.3,0.6,0.3,1c0,0.3-0.1,0.7-0.3,1
		c-0.1,0.2-0.3,0.4-0.4,0.5c-0.3,0.2-0.6,0.4-1,0.5V80z M177.5,81v2.3V84c-1-0.2-1.7-1-1.7-2c0-0.9,0.8-1.7,1.7-1.9V81z M193,96.4
		l-2.6,5.2c-0.1,0-1.4-1-3.1-2.2c0.7-0.9-0.1,0.2,3.2-4L193,96.4z M186,98.2l-3.3-4.1v-1.7c1.1,0.4,2.2,0.6,3.4,0.6
		c1.2,0,2.3-0.2,3.3-0.7v1.7L186,98.2z M186,100.7l1.8,1.3l-0.7,1h-2.2l-0.7-1L186,100.7z M179.2,84.7v-5.5v-0.3
		c3.8,0.2,7.9-0.9,11.1-3c1.3,1.4,2,2.1,2.2,2.4c0,0.7,0,5.6,0,6.4c0,3.6-2.9,6.5-6.5,6.5C182,91.3,179.2,88.1,179.2,84.7z
		 M181.6,101.7l-2.6-5.2l2.5-1l3.2,4C183.1,100.6,181.7,101.5,181.6,101.7z M182.6,119.9l2.6-15.2h1.7l2.6,15.2l-3.4,3.7
		L182.6,119.9z"/>
</g>
<g id="XMLID_11_">
	<path id="XMLID_371_" class="st2" d="M694.2,156.4l-1.9-11.3h-1.1h0H690l-1.9,11.3c0,0.1,0,0.3,0.1,0.4l0,0l0,0l2.6,2.9
		c0.1,0.2,0.4,0.2,0.5,0l2.6-2.9l0,0l0,0C694.1,156.7,694.2,156.5,694.2,156.4z"/>
	<g id="XMLID_364_">
		<polygon id="XMLID_366_" class="st2" points="691.2,142.1 691.2,142.1 691.2,142.1 691.1,142.1 691.1,142.1 689,143.6 690,145.1 
			691.1,145.1 691.2,145.1 692.3,145.1 693.3,143.6 		"/>
	</g>
	<polygon id="XMLID_360_" class="st16" points="690.4,144.4 692,144.4 692.4,143.7 691.2,142.8 689.9,143.7 	"/>
	<path id="XMLID_358_" class="st16" d="M692.1,141.9c1.2,0.8,2.2,1.5,2.2,1.6l1.8-3.7l-1.8-0.7C692,142.1,692.6,141.3,692.1,141.9z"
		/>
	<path id="XMLID_357_" class="st16" d="M698.2,129.7c0-0.2-0.1-0.5-0.2-0.7v1.4C698.2,130.2,698.2,130,698.2,129.7z"/>
	<polygon id="XMLID_352_" class="st16" points="691.8,145.7 690.6,145.7 688.8,156.4 691.2,159 693.6,156.4 	"/>
	<path id="XMLID_347_" class="st16" d="M688,139.2l-1.8,0.7l1.8,3.7c0.1-0.1,1.1-0.7,2.2-1.6L688,139.2z"/>
	<path id="XMLID_345_" class="st16" d="M691.2,136.2c2.5,0,4.6-2.1,4.6-4.6c0-0.6,0-4,0-4.5c-0.2-0.2-0.6-0.7-1.6-1.7
		c-2.3,1.5-5.1,2.3-7.8,2.1v0.2v3.9C686.4,134,688.3,136.2,691.2,136.2z"/>
	<path id="XMLID_14_" d="M704.9,152.5c-0.3,0-0.6,0.3-0.6,0.6v5.9c0,0.2-0.2,0.3-0.3,0.3h-3.4V147c0-0.3-0.3-0.6-0.6-0.6
		s-0.6,0.3-0.6,0.6v12.3h-6.8l2-2.2c0.2-0.2,0.3-0.6,0.3-0.9c0,0,0,0,0,0l-1.9-11l0.5-0.8c0.3,0.2,0.5,0.4,0.9,0.4
		c0.4,0,0.8-0.2,1-0.6v0l2-3.9l4.5,1.7c0.2,0.1,2.5,1.1,2.5,3.9v7.3c0.1,0,1.2,0,1.2,0V146c0-3.7-3.2-5-3.3-5.1c0,0,0,0,0,0
		l-7.5-2.9v-1.7c1.2-0.9,2-2.3,2.2-3.8c0.6,0,1.1-0.3,1.6-0.6c0.6-0.5,0.9-1.2,0.9-2c0-0.6-0.2-1.3-0.6-1.7v-2.3
		c0-4.3-3.5-7.7-7.7-7.7c-4.3,0-7.7,3.5-7.7,7.7v2.4c-0.4,0.5-0.6,1.1-0.6,1.7c0,0.8,0.3,1.5,0.9,2c0.4,0.4,1,0.6,1.6,0.6
		c0.2,1.6,1.1,3,2.3,3.9v1.7l-7.5,2.9c0,0,0,0,0,0c-0.1,0.1-3.3,1.4-3.3,5.1v13c0,0.9,0.7,1.6,1.6,1.6h5.9c0.3,0,0.6-0.3,0.6-0.6
		c0-0.3-0.3-0.6-0.6-0.6H683V147c0-0.3-0.3-0.6-0.6-0.6c-0.3,0-0.6,0.3-0.6,0.6v12.3h-3.4c-0.2,0-0.3-0.2-0.3-0.3v-13
		c0-2.8,2.4-3.9,2.5-3.9l4.5-1.7l2,3.9c0.2,0.4,0.6,0.6,1,0.6c0.4,0,0.6-0.2,0.9-0.4l0.5,0.8l-1.9,11c0,0,0,0,0,0
		c0,0.3,0.1,0.7,0.3,0.9l2,2.2h-2.5c-0.3,0-0.6,0.3-0.6,0.6s0.3,0.6,0.6,0.6h16.7c0.9,0,1.6-0.7,1.6-1.6v-5.9
		C705.5,152.7,705.3,152.5,704.9,152.5z M697,128.3c0.5,0.1,0.8,0.3,1,0.7c0.1,0.2,0.2,0.4,0.2,0.7c0,0.2-0.1,0.5-0.2,0.7
		c-0.1,0.1-0.2,0.3-0.3,0.4c-0.2,0.2-0.5,0.3-0.7,0.3V128.3z M685.2,129v1.6v0.5c-0.7-0.1-1.2-0.7-1.2-1.4c0-0.7,0.6-1.2,1.2-1.4
		V129z M696.1,139.8l-1.8,3.7c0,0-1-0.7-2.2-1.6c0.5-0.6-0.1,0.1,2.3-2.8L696.1,139.8z M691.2,141.1l-2.3-2.9V137
		c0.8,0.3,1.6,0.4,2.4,0.4c0.8,0,1.6-0.2,2.3-0.5v1.2L691.2,141.1z M691.2,142.8l1.3,0.9l-0.5,0.7h-1.6l-0.5-0.7L691.2,142.8z
		 M686.4,131.6v-3.9v-0.2c2.7,0.2,5.5-0.6,7.8-2.1c0.9,1,1.4,1.5,1.6,1.7c0,0.5,0,4,0,4.5c0,2.5-2.1,4.6-4.6,4.6
		C688.3,136.2,686.4,134,686.4,131.6z M688.1,143.5l-1.8-3.7l1.8-0.7l2.3,2.8C689.1,142.8,688.2,143.4,688.1,143.5z M688.8,156.4
		l1.8-10.7h1.2l1.8,10.7l-2.4,2.6L688.8,156.4z"/>
</g>
<g id="XMLID_59_">
	<path id="XMLID_95_" class="st2" d="M51.1,205.7l-2.7-16.1h-1.6h0h-1.6l-2.7,16.1c0,0.2,0,0.4,0.2,0.6l0,0l0,0l3.7,4.1
		c0.2,0.2,0.6,0.2,0.8,0l3.7-4.1l0,0l0,0C51.1,206.1,51.1,205.9,51.1,205.7z"/>
	<g id="XMLID_93_">
		<polygon id="XMLID_94_" class="st2" points="46.8,185.4 46.8,185.4 46.8,185.4 46.8,185.4 46.8,185.4 43.8,187.6 45.2,189.7 
			46.8,189.7 46.8,189.7 48.4,189.7 49.8,187.6 		"/>
	</g>
	<polygon id="XMLID_92_" class="st16" points="45.7,188.7 47.9,188.7 48.6,187.7 46.8,186.5 45,187.7 	"/>
	<path id="XMLID_91_" class="st16" d="M48.1,185.2c1.7,1.2,3.1,2.2,3.1,2.2l2.6-5.2l-2.5-1C48,185.3,48.8,184.3,48.1,185.2z"/>
	<path id="XMLID_89_" class="st16" d="M56.9,167.8c0-0.4-0.1-0.7-0.3-1v1.9C56.8,168.5,56.9,168.1,56.9,167.8z"/>
	<polygon id="XMLID_87_" class="st16" points="47.7,190.5 46,190.5 43.4,205.7 46.8,209.5 50.2,205.7 	"/>
	<path id="XMLID_86_" class="st16" d="M42.3,181.2l-2.5,1l2.6,5.2c0.1-0.1,1.5-1.1,3.1-2.2L42.3,181.2z"/>
	<path id="XMLID_85_" class="st16" d="M46.8,177c3.6,0,6.5-2.9,6.5-6.5c0-0.8,0-5.7,0-6.4c-0.2-0.3-0.9-1-2.2-2.4
		c-3.2,2.1-7.3,3.2-11.1,3v0.3v5.5C40.1,173.9,42.8,177,46.8,177z"/>
	<path id="XMLID_64_" d="M66.4,200.2c-0.5,0-0.9,0.4-0.9,0.9v8.3c0,0.3-0.2,0.5-0.5,0.5h-4.8v-17.5c0-0.5-0.4-0.9-0.9-0.9
		s-0.9,0.4-0.9,0.9v17.5h-9.6l2.8-3.1c0.3-0.3,0.4-0.8,0.4-1.3c0,0,0,0,0,0l-2.7-15.7l0.7-1.1c0.4,0.3,0.7,0.6,1.3,0.6
		c0.6,0,1.1-0.3,1.4-0.9v0l2.8-5.6l6.4,2.5c0.2,0.1,3.6,1.6,3.6,5.6v6c0,0.5,0.4,0.9,0.9,0.9s0.9-0.4,0.9-0.9v-6
		c0-5.3-4.5-7.2-4.7-7.2c0,0,0,0,0,0l-10.6-4.1v-2.5c1.7-1.3,2.9-3.3,3.1-5.5c0.8-0.1,1.6-0.4,2.3-0.9c0.8-0.7,1.3-1.8,1.3-2.9
		c0-0.9-0.3-1.8-0.9-2.5V162c0-6.1-4.9-11-11-11s-11,4.9-11,11v3.4c-0.6,0.7-0.9,1.5-0.9,2.4c0,1.1,0.5,2.1,1.3,2.9
		c0.6,0.5,1.4,0.9,2.3,0.9c0.3,2.3,1.5,4.3,3.3,5.6v2.4l-10.6,4.1c0,0,0,0,0,0c-0.2,0.1-4.7,2-4.7,7.2v18.5c0,1.2,1,2.3,2.3,2.3h8.5
		c0.5,0,0.9-0.4,0.9-0.9s-0.4-0.9-0.9-0.9h-1.9v-17.5c0-0.5-0.4-0.9-0.9-0.9s-0.9,0.4-0.9,0.9v17.5h-4.8c-0.3,0-0.5-0.2-0.5-0.5
		v-18.5c0-4,3.4-5.5,3.6-5.6l6.4-2.5l2.8,5.6c0.3,0.5,0.8,0.9,1.4,0.9c0.6,0,0.9-0.3,1.3-0.6l0.7,1.1l-2.7,15.7c0,0,0,0,0,0
		c-0.1,0.5,0.1,0.9,0.4,1.3l2.8,3.1h-3.6c-0.5,0-0.9,0.4-0.9,0.9s0.4,0.9,0.9,0.9H65c1.2,0,2.3-1,2.3-2.3v-8.3
		C67.3,200.6,66.9,200.2,66.4,200.2z M55.2,165.8c0.6,0.1,1.2,0.5,1.5,1c0.2,0.3,0.3,0.6,0.3,1c0,0.3-0.1,0.7-0.3,1
		c-0.1,0.2-0.3,0.4-0.4,0.5c-0.3,0.2-0.6,0.4-1,0.5V165.8z M38.3,166.7v2.3v0.7c-1-0.2-1.7-1-1.7-2c0-0.9,0.8-1.7,1.7-1.9V166.7z
		 M53.9,182.2l-2.6,5.2c-0.1,0-1.4-1-3.1-2.2c0.7-0.9-0.1,0.2,3.2-4L53.9,182.2z M46.8,184l-3.3-4.1v-1.7c1.1,0.4,2.2,0.6,3.4,0.6
		c1.2,0,2.3-0.2,3.3-0.7v1.7L46.8,184z M46.8,186.5l1.8,1.3l-0.7,1h-2.2l-0.7-1L46.8,186.5z M40.1,170.5v-5.5v-0.3
		c3.8,0.2,7.9-0.9,11.1-3c1.3,1.4,2,2.1,2.2,2.4c0,0.7,0,5.6,0,6.4c0,3.6-2.9,6.5-6.5,6.5C42.8,177,40.1,173.9,40.1,170.5z
		 M42.4,187.4l-2.6-5.2l2.5-1l3.2,4C43.9,186.4,42.5,187.3,42.4,187.4z M43.4,205.7l2.6-15.2h1.7l2.6,15.2l-3.4,3.7L43.4,205.7z"/>
</g>
<path id="XMLID_301_" class="st6" d="M695.9,196.9v4.9l-3.3,7.6c-0.2,0.4-0.7,0.4-0.8,0l-3.2-7.6v-4.9L695.9,196.9z"/>
<path id="XMLID_18_" class="st2" d="M702,184.1h-3.6l0,0l0-3c0-1.3-1.1-2.4-2.4-2.4h-0.4H694h-0.5l-1.2,1.2l-1.2-1.2h-2.4
	c-1.3,0-2.4,1.1-2.4,2.4l0,3h-3.6c-0.7,0-1.2,0.5-1.2,1.2c0,0.7,0.5,1.2,1.2,1.2H702c0.7,0,1.2-0.5,1.2-1.2
	C703.2,184.6,702.7,184.1,702,184.1z"/>
<path id="XMLID_307_" class="st17" d="M706.9,207.8c0-3-2.4-5.4-5.4-5.4l-3,0l-2-1v-3c1.4-1.1,2.3-2.7,2.4-4.6h0.7
	c1,0,1.8-0.8,1.8-1.8v-2.4c0-1-0.8-1.8-1.8-1.8h-0.7v-0.7h3.1c1,0,1.8-0.8,1.8-1.8s-0.8-1.8-1.8-1.8h-3.1l0-2.5c0-1.6-1.3-3-3-3
	h-2.4c-0.1,0-0.3,0.1-0.4,0.2l-0.8,0.8l-0.8-0.8c-0.1-0.1-0.2-0.2-0.4-0.2h-2.4c-1.6,0-3,1.3-3,3l0,2.5h-3.1c-1,0-1.8,0.8-1.8,1.8
	s0.8,1.8,1.8,1.8h3.1v0.7H685c-1,0-1.8,0.8-1.8,1.8v2.4c0,1,0.8,1.8,1.8,1.8h0.7c0.2,1.8,1.1,3.5,2.4,4.6v3l-2,1l-3,0
	c-3,0-5.4,2.4-5.4,5.4v7.3c0,0.3,0.2,0.6,0.6,0.6h3.4c0.3,0,0.6-0.2,0.6-0.6s-0.2-0.6-0.6-0.6h-2.8v-6.7c0-2.4,1.9-4.3,4.3-4.3
	l2.7,0l1.1,4.4c0,0.2,0.1,0.3,0.3,0.4c0.1,0,0.2,0.1,0.3,0.1c0.1,0,0.1,0,0.2,0l2.8-1.1l1.4,3.2c0.1,0.2,0.3,0.3,0.5,0.3
	c0,0,0,0,0,0c0.2,0,0.4-0.1,0.5-0.3l1.4-3.2l2.8,1.1c0.1,0,0.1,0,0.2,0c0.1,0,0.2,0,0.3-0.1c0.1-0.1,0.2-0.2,0.3-0.4l1.1-4.4l2.7,0
	c2.4,0,4.3,1.9,4.3,4.3l0,6.7h-22c-0.3,0-0.6,0.2-0.6,0.6s0.2,0.6,0.6,0.6h22.6c0.1,0,0.3-0.1,0.4-0.2c0.1-0.1,0.2-0.2,0.2-0.4
	L706.9,207.8z M700.3,189.6v2.4c0,0.4-0.3,0.7-0.7,0.7h-0.7v-3.8h0.7C700,188.9,700.3,189.2,700.3,189.6z M686.8,181
	c0-1,0.8-1.9,1.9-1.9h2.2l1.1,1.1c0.1,0.1,0.2,0.2,0.4,0.2c0.1,0,0.3-0.1,0.4-0.2l1.1-1.1h2.2c1,0,1.9,0.8,1.9,1.9l0,2.5h-11.1
	L686.8,181z M681.9,185.3c0-0.4,0.3-0.7,0.7-0.7h3.6c0,0,0,0,0,0h12.2c0,0,0,0,0,0h3.6c0.4,0,0.7,0.3,0.7,0.7c0,0.4-0.3,0.7-0.7,0.7
	h-19.5C682.2,186,681.9,185.7,681.9,185.3z M697.8,187.1v0.7h-11.1v-0.7H697.8z M693.8,188.9h2.5v0.7c0,0.4-0.3,0.7-0.7,0.7h-1.2
	c-0.4,0-0.7-0.3-0.7-0.7L693.8,188.9L693.8,188.9z M688.3,188.9h2.5v0.7c0,0.4-0.3,0.7-0.7,0.7H689c-0.4,0-0.7-0.3-0.7-0.7
	L688.3,188.9L688.3,188.9z M684.3,192v-2.4c0-0.4,0.3-0.7,0.7-0.7h0.7v3.8H685C684.6,192.7,684.3,192.4,684.3,192z M686.8,193.2
	v-4.3h0.4v0.7c0,1,0.8,1.8,1.8,1.8h1.2c1,0,1.8-0.8,1.8-1.8v-0.7h0.7v0.7c0,1,0.8,1.8,1.8,1.8h1.2c1,0,1.8-0.8,1.8-1.8v-0.7h0.4v4.3
	c0,3-2.5,5.5-5.5,5.5C689.2,198.7,686.8,196.3,686.8,193.2z M687.8,207.1l-1-3.8l1.5-0.8l1.6,3.7L687.8,207.1z M692.3,208.8
	l-3.1-7.2v-2.5c0.9,0.5,2,0.8,3.1,0.8c1.1,0,2.2-0.3,3.1-0.8v2.5L692.3,208.8z M696.8,207.1l-2.2-0.8l1.6-3.7l1.5,0.8L696.8,207.1z"
	/>
<g id="XMLID_58_">
	<polygon id="XMLID_62_" class="st2" points="162.8,181.1 162.8,213.3 169.4,213.3 169.4,187.7 195,187.7 195,181.1 	"/>
	<polygon id="XMLID_61_" class="st18" points="187.9,193.9 187.9,206.4 175.4,206.4 175.4,213.4 195,213.4 195,193.9 	"/>
</g>
<line id="XMLID_8_" class="st19" x1="686.2" y1="100.6" x2="702.1" y2="100.6"/>
<line id="XMLID_23_" class="st19" x1="678.3" y1="100.6" x2="683.8" y2="100.6"/>
<g id="XMLID_275_">
	<rect id="XMLID_180_" x="512" y="137.5" class="st6" width="20.7" height="30.8"/>
	<g id="XMLID_247_">
		<rect id="XMLID_179_" x="514.3" y="139.9" width="2.7" height="4.4"/>
		<rect id="XMLID_178_" x="518.8" y="139.9" width="2.7" height="4.4"/>
		<rect id="XMLID_177_" x="523.3" y="139.9" width="2.7" height="4.4"/>
		<rect id="XMLID_176_" x="527.7" y="139.9" width="2.7" height="4.4"/>
		<rect id="XMLID_175_" x="514.3" y="146.8" width="2.7" height="4.4"/>
		<rect id="XMLID_174_" x="518.8" y="146.8" width="2.7" height="4.4"/>
	</g>
	<g id="XMLID_244_">
		<rect id="XMLID_173_" x="523.3" y="146.8" width="2.7" height="4.4"/>
		<rect id="XMLID_172_" x="527.7" y="146.8" width="2.7" height="4.4"/>
	</g>
	<g id="XMLID_238_">
		<rect id="XMLID_169_" x="514.3" y="160.7" width="2.7" height="4.4"/>
		<rect id="XMLID_168_" x="518.8" y="160.7" width="2.7" height="4.4"/>
	</g>
	<g id="XMLID_235_">
		<rect id="XMLID_167_" x="523.3" y="160.7" width="2.7" height="4.4"/>
		<rect id="XMLID_166_" x="527.7" y="160.7" width="2.7" height="4.4"/>
	</g>
	<g id="XMLID_222_">
		<rect id="XMLID_157_" x="514.3" y="153.8" width="2.7" height="4.4"/>
		<rect id="XMLID_156_" x="518.8" y="153.8" width="2.7" height="4.4"/>
	</g>
	<g id="XMLID_219_">
		<rect id="XMLID_155_" x="523.3" y="153.8" width="2.7" height="4.4"/>
		<rect id="XMLID_154_" x="527.7" y="153.8" width="2.7" height="4.4"/>
	</g>
	<rect id="XMLID_149_" x="523.3" y="146.8" class="st6" width="17.8" height="21.6"/>
	<rect id="XMLID_148_" x="529.2" y="162.4" width="5.9" height="5.9"/>
	<rect id="XMLID_147_" x="528.4" y="161.4" width="7.4" height="1"/>
	<g id="XMLID_205_">
		<rect id="XMLID_146_" x="524.7" y="148.8" width="2.4" height="4.3"/>
		<rect id="XMLID_145_" x="528.9" y="148.8" width="2.4" height="4.3"/>
		<rect id="XMLID_144_" x="533" y="148.8" width="2.4" height="4.3"/>
		<rect id="XMLID_143_" x="537.1" y="148.8" width="2.4" height="4.3"/>
	</g>
	<g id="XMLID_193_">
		<rect id="XMLID_138_" x="524.7" y="155.2" width="2.4" height="4.3"/>
		<rect id="XMLID_137_" x="528.9" y="155.2" width="2.4" height="4.3"/>
		<rect id="XMLID_136_" x="533" y="155.2" width="2.4" height="4.3"/>
		<rect id="XMLID_135_" x="537.1" y="155.2" width="2.4" height="4.3"/>
		<rect id="XMLID_134_" x="537.1" y="161.4" width="2.4" height="4.3"/>
		<rect id="XMLID_133_" x="524.7" y="161.4" width="2.4" height="4.3"/>
	</g>
	<path id="XMLID_126_" d="M542.2,170h-30.8c-0.2,0-0.4-0.2-0.4-0.4v-0.8c0-0.2,0.2-0.4,0.4-0.4h30.8c0.2,0,0.4,0.2,0.4,0.4v0.8
		C542.6,169.8,542.5,170,542.2,170z"/>
</g>
<path id="XMLID_234_" class="st6" d="M537.4,98.6l-12.2-9.4L513,98.6c-0.6,0.5-1.5,0.4-2.1-0.2c-0.6-0.7-0.5-1.7,0.2-2.3L525.2,85
	l14.1,11.2c0.7,0.6,0.8,1.6,0.2,2.3C538.9,99,538,99.1,537.4,98.6L537.4,98.6z M537.4,98.6"/>
<path id="XMLID_231_" class="st6" d="M525.2,90.7l-11.7,9v15.3h23.3V99.7L525.2,90.7z M525.2,90.7"/>
<path id="XMLID_226_" class="st6" d="M539.9,109.8c-0.3,0-0.5,0.2-0.5,0.5v0.5h-0.5v-0.5c0-0.3-0.2-0.5-0.5-0.5
	c-0.3,0-0.5,0.2-0.5,0.5v0.5h-1c-0.3,0-0.5,0.2-0.5,0.5c0,0.3,0.2,0.5,0.5,0.5h1v1.5h-1c-0.3,0-0.5,0.2-0.5,0.5
	c0,0.3,0.2,0.5,0.5,0.5h1v0.5c0,0.3,0.2,0.5,0.5,0.5c0.3,0,0.5-0.2,0.5-0.5v-0.5h0.5v0.5c0,0.3,0.2,0.5,0.5,0.5
	c0.3,0,0.5-0.2,0.5-0.5v-4.6C540.4,110.1,540.2,109.8,539.9,109.8L539.9,109.8z M538.9,113.4v-1.5h0.5v1.5H538.9z M538.9,113.4"/>
<path id="XMLID_220_" class="st6" d="M513.5,111.9c0.3,0,0.5-0.2,0.5-0.5c0-0.3-0.2-0.5-0.5-0.5h-1v-0.5c0-0.3-0.2-0.5-0.5-0.5
	c-0.3,0-0.5,0.2-0.5,0.5v0.5H511v-0.5c0-0.3-0.2-0.5-0.5-0.5c-0.3,0-0.5,0.2-0.5,0.5v4.6c0,0.3,0.2,0.5,0.5,0.5
	c0.3,0,0.5-0.2,0.5-0.5v-0.5h0.5v0.5c0,0.3,0.2,0.5,0.5,0.5c0.3,0,0.5-0.2,0.5-0.5v-0.5h1c0.3,0,0.5-0.2,0.5-0.5
	c0-0.3-0.2-0.5-0.5-0.5h-1v-1.5H513.5z M511.5,113.4H511v-1.5h0.5V113.4z M511.5,113.4"/>
<rect id="XMLID_190_" x="517.6" y="99.2" width="6.1" height="4.1"/>
<rect id="XMLID_189_" x="517.6" y="106.3" width="6.1" height="5.1"/>
<rect id="XMLID_188_" x="526.7" y="99.2" width="6.1" height="4.1"/>
<rect id="XMLID_187_" x="526.7" y="106.3" width="6.1" height="8.6"/>
<path id="XMLID_208_" class="st6" d="M521.1,108.3v-2h-1v2h-2.5v1h2.5v2h1v-2h2.5v-1H521.1z M521.1,108.3"/>
<path id="XMLID_271_" d="M524.1,210.8h3.6v5.4h-3.6V210.8z"/>
<path id="XMLID_270_" d="M527.7,210.8h3.6v5.4h-3.6V210.8z"/>
<path id="XMLID_268_" class="st6" d="M518.8,206.6v-21.4l9.5-3.6v25H518.8z"/>
<path id="XMLID_267_" class="st6" d="M528.3,207.8v-21.4l7.1,3v18.5H528.3z"/>
<path id="XMLID_266_" d="M528.3,203.1h7.1v5.4h-7.1V203.1z"/>
<path id="XMLID_265_" d="M518.8,201.3h9.5v5.4h-9.5V201.3z"/>
<g id="XMLID_290_">
	<path id="XMLID_264_" d="M525.3,198.3h1.2v1.2h-1.2V198.3z"/>
	<path id="XMLID_263_" d="M522.9,198.3h1.2v1.2h-1.2V198.3z"/>
	<path id="XMLID_262_" d="M532.5,200.1h1.2v1.2h-1.2V200.1z"/>
	<path id="XMLID_261_" d="M530.1,200.1h1.2v1.2h-1.2V200.1z"/>
	<path id="XMLID_260_" d="M532.5,197.7h1.2v1.2h-1.2V197.7z"/>
	<path id="XMLID_259_" d="M530.1,197.7h1.2v1.2h-1.2V197.7z"/>
	<path id="XMLID_258_" d="M532.5,195.3h1.2v1.2h-1.2V195.3z"/>
	<path id="XMLID_257_" d="M530.1,195.3h1.2v1.2h-1.2V195.3z"/>
	<path id="XMLID_256_" d="M532.5,192.9h1.2v1.2h-1.2V192.9z"/>
	<path id="XMLID_255_" d="M530.1,192.9h1.2v1.2h-1.2V192.9z"/>
	<path id="XMLID_254_" d="M532.5,190.6h1.2v1.2h-1.2V190.6z"/>
	<path id="XMLID_253_" d="M530.1,190.6h1.2v1.2h-1.2V190.6z"/>
	<path id="XMLID_252_" d="M520.5,198.3h1.2v1.2h-1.2V198.3z"/>
	<path id="XMLID_251_" d="M525.3,195.9h1.2v1.2h-1.2V195.9z"/>
	<path id="XMLID_250_" d="M522.9,195.9h1.2v1.2h-1.2V195.9z"/>
	<path id="XMLID_249_" d="M520.5,195.9h1.2v1.2h-1.2V195.9z"/>
	<path id="XMLID_248_" d="M525.3,193.5h1.2v1.2h-1.2V193.5z"/>
	<path id="XMLID_246_" d="M522.9,193.5h1.2v1.2h-1.2V193.5z"/>
	<path id="XMLID_245_" d="M520.5,193.5h1.2v1.2h-1.2V193.5z"/>
	<path id="XMLID_243_" d="M525.3,191.1h1.2v1.2h-1.2V191.1z"/>
	<path id="XMLID_242_" d="M522.9,191.1h1.2v1.2h-1.2V191.1z"/>
	<path id="XMLID_240_" d="M520.5,191.1h1.2v1.2h-1.2V191.1z"/>
	<path id="XMLID_237_" d="M525.3,188.8h1.2v1.2h-1.2V188.8z"/>
	<path id="XMLID_236_" d="M522.9,188.8h1.2v1.2h-1.2V188.8z"/>
	<path id="XMLID_233_" d="M520.5,188.8h1.2v1.2h-1.2V188.8z"/>
	<path id="XMLID_232_" d="M525.3,186.4h1.2v1.2h-1.2V186.4z"/>
	<path id="XMLID_230_" d="M522.9,186.4h1.2v1.2h-1.2V186.4z"/>
	<path id="XMLID_229_" d="M520.5,186.4h1.2v1.2h-1.2V186.4z"/>
</g>
<path id="XMLID_227_" class="st6" d="M537.6,206c-1.2,0.8-2.6,1.2-4,1.2c-4.2,0-4.8-3.6-10.1-3.6s-8.3,4.2-8.3,4.2v3.6h25v-4.2
	L537.6,206z"/>
<g id="XMLID_278_">
	<path id="XMLID_215_" d="M517.6,208.4h12.5v1.2h-12.5V208.4z"/>
	<path id="XMLID_214_" d="M537.2,208.4h1.2v1.2h-1.2V208.4z"/>
	<path id="XMLID_212_" d="M519.9,206h1.2v1.2h-1.2V206z"/>
	<path id="XMLID_211_" d="M522.3,206h4.8v1.2h-4.8V206z"/>
</g>
<polygon id="XMLID_128_" class="st6" points="539,215.6 539,210.8 536.6,210.8 536.6,211.4 531.3,211.4 531.3,213.8 531.3,214.4 
	531.3,215.6 524.1,215.6 524.1,214.4 524.1,213.8 524.1,211.4 518.8,211.4 518.8,210.8 516.4,210.8 516.4,215.6 509.8,215.6 
	509.8,216.8 545.6,216.8 545.6,215.6 "/>
<g id="XMLID_314_">
	<rect id="XMLID_361_" x="112.4" y="324.5" class="st2" width="1.3" height="1.3"/>
	<rect id="XMLID_359_" x="112.4" y="327" class="st2" width="1.3" height="1.3"/>
	<path id="XMLID_338_" class="st2" d="M113,318.2l-6.4,11.4l6.4,8.5l6.4-8.5L113,318.2z M112.4,335.2l-3.1-4.1l3.1,1.4V335.2z
		 M112.4,329.5v1.5l-4.1-1.8l4.1-7.3v1.4h1.3v-1.4l4.1,7.3l-4.1,1.8v-1.5H112.4z M113.6,335.2v-2.7l3.1-1.4L113.6,335.2z"/>
</g>
<g id="XMLID_45_">
	<rect id="XMLID_336_" x="83.6" y="179.8" class="st2" width="1.3" height="1.3"/>
	<rect id="XMLID_335_" x="83.6" y="182.3" class="st2" width="1.3" height="1.3"/>
	<path id="XMLID_49_" class="st2" d="M84.3,173.5l-6.4,11.4l6.4,8.5l6.4-8.5L84.3,173.5z M83.6,190.5l-3.1-4.1l3.1,1.4V190.5z
		 M83.6,184.8v1.5l-4.1-1.8l4.1-7.3v1.4h1.3v-1.4l4.1,7.3l-4.1,1.8v-1.5H83.6z M84.9,190.5v-2.7l3.1-1.4L84.9,190.5z"/>
</g>
<circle id="XMLID_90_" class="st20" cx="18.4" cy="165.1" r="7.7"/>
<g id="XMLID_112_">
	<text id="XMLID_161_" transform="matrix(1 0 0 1 15.8152 167.7696)" class="st6 st11 st8">1</text>
</g>
<circle id="XMLID_125_" class="st20" cx="179.6" cy="166.6" r="7.7"/>
<g id="XMLID_40_">
	<text id="XMLID_153_" transform="matrix(1 0 0 1 176.9954 169.1995)" class="st6 st11 st8">2</text>
</g>
<circle id="XMLID_121_" class="st20" cx="160.4" cy="71.4" r="7.7"/>
<g id="XMLID_47_">
	<text id="XMLID_151_" transform="matrix(1 0 0 1 157.8522 74.0063)" class="st6 st11 st8">3</text>
</g>
<circle id="XMLID_129_" class="st20" cx="225.4" cy="351.1" r="7.7"/>
<g id="XMLID_114_">
	<text id="XMLID_142_" transform="matrix(1 0 0 1 222.8234 353.7503)" class="st6 st11 st8">6</text>
</g>
<circle id="XMLID_127_" class="st20" cx="506.9" cy="325.1" r="7.7"/>
<g id="XMLID_42_">
	<text id="XMLID_140_" transform="matrix(1 0 0 1 504.3 327.7503)" class="st6 st11 st8">5</text>
</g>
<circle id="XMLID_124_" class="st20" cx="636.6" cy="120.3" r="7.7"/>
<g id="XMLID_96_">
	<text id="XMLID_113_" transform="matrix(1 0 0 1 633.9926 122.891)" class="st6 st11 st8">4</text>
</g>
<g id="XMLID_19_">
	<path id="XMLID_38_" class="st2" d="M481.8,347.9h-22.5c-0.8,0-1.5-0.4-1.9-1.1l-11.3-19.5c-0.4-0.7-0.4-1.5,0-2.2l11.3-19.5
		c0.4-0.7,1.1-1.1,1.9-1.1h22.5c0.8,0,1.5,0.4,1.9,1.1l11.3,19.5c0.4,0.7,0.4,1.5,0,2.2l-11.3,19.5
		C483.3,347.4,482.6,347.9,481.8,347.9z"/>
	<path id="XMLID_30_" class="st21" d="M489.3,315.2l-36.7,23.1l4.9,8.4c0.4,0.7,1.1,1.1,1.9,1.1h22.5c0.8,0,1.5-0.4,1.9-1.1
		l11.3-19.5c0.4-0.7,0.4-1.5,0-2.2L489.3,315.2z"/>
</g>
<path id="XMLID_130_" class="st6" d="M475,324.7c-1.2-0.7-2.6-1.2-3.9-1.7c-0.8-0.3-1.5-0.7-2.1-1.2c-1.3-1-1-2.6,0.5-3.3
	c0.4-0.2,0.9-0.2,1.3-0.3c1.7-0.1,3.3,0.2,4.9,1c0.8,0.4,1,0.3,1.3-0.5c0.3-0.8,0.5-1.7,0.8-2.6c0.2-0.6,0-1-0.6-1.2
	c-1-0.4-2-0.7-3.1-0.9c-1.4-0.2-1.4-0.2-1.4-1.6c0-2,0-2-2-2c-0.3,0-0.6,0-0.9,0c-0.9,0-1.1,0.2-1.1,1.1c0,0.4,0,0.8,0,1.3
	c0,1.2,0,1.2-1.2,1.6c-2.9,1-4.6,3-4.8,6.1c-0.2,2.8,1.3,4.6,3.6,6c1.4,0.8,3,1.3,4.4,2c0.6,0.3,1.1,0.5,1.6,1
	c1.4,1.2,1.2,3.1-0.5,3.9c-0.9,0.4-1.9,0.5-2.8,0.4c-1.5-0.2-3-0.6-4.3-1.3c-0.8-0.4-1-0.3-1.3,0.6c-0.2,0.7-0.4,1.5-0.7,2.3
	c-0.3,1-0.2,1.3,0.8,1.7c1.2,0.6,2.6,0.9,3.9,1.1c1.1,0.2,1.1,0.2,1.1,1.3c0,0.5,0,1,0,1.5c0,0.6,0.3,1,1,1c0.7,0,1.5,0,2.2,0
	c0.6,0,0.9-0.3,0.9-0.9c0-0.7,0-1.4,0-2c0-0.7,0.3-1,0.9-1.2c1.5-0.4,2.8-1.2,3.8-2.5C480,331.9,478.9,326.9,475,324.7L475,324.7z
	 M475,324.7"/>
</svg>
